<svg version="1.1" fill="#52525c" xmlns="http://www.w3.org/2000/svg"
    x="0" y="0"
    viewBox="2 125 170 42">
    <g transform="translate(0, 0)">
        <path
            d="M6.906,130.062c0.12-0.059,0.305-0.246,0.555-0.562c0.053,0.075,0.125,0.173,0.217,0.296 c0.088,0.092,0.23,0.138,0.427,0.138c0.219,0,0.42-0.061,0.604-0.184c0.184-0.123,0.276-0.278,0.276-0.466 c0-0.131-0.064-0.289-0.19-0.473c-0.127-0.184-0.285-0.276-0.473-0.276c-0.285,0-0.488,0.056-0.611,0.167 c-0.123,0.112-0.241,0.305-0.355,0.581c-0.101-0.223-0.196-0.368-0.286-0.433c-0.09-0.066-0.246-0.099-0.47-0.099 c-0.206,0-0.382,0.039-0.529,0.118c-0.147,0.079-0.22,0.254-0.22,0.526c0,0.232,0.067,0.416,0.2,0.552 c0.133,0.136,0.281,0.204,0.443,0.204C6.649,130.15,6.786,130.121,6.906,130.062z" />

        <path
            d="M12.111,137.893c-0.223,0-0.405,0.069-0.545,0.207c-0.14,0.138-0.21,0.283-0.21,0.437c0,0.18,0.077,0.35,0.23,0.512 c0.153,0.162,0.293,0.243,0.42,0.243c0.241,0,0.426-0.079,0.555-0.236c0.129-0.158,0.194-0.331,0.194-0.519 c0-0.215-0.049-0.375-0.148-0.483C12.508,137.947,12.343,137.893,12.111,137.893z" />

        <path
            d="M13.91,137.854c-0.223,0-0.404,0.069-0.542,0.207c-0.138,0.138-0.207,0.283-0.207,0.437c0,0.267,0.058,0.448,0.174,0.542 c0.116,0.094,0.237,0.165,0.365,0.214c0.214,0,0.411-0.061,0.591-0.184c0.179-0.123,0.269-0.313,0.269-0.571 c0-0.188-0.045-0.343-0.135-0.463C14.336,137.914,14.164,137.854,13.91,137.854z" />

        <path
            d="M21.683,135.237c-0.151-0.12-0.38-0.181-0.686-0.181c-0.18,0-0.547,0.047-1.103,0.141 c-0.556,0.094-0.981,0.141-1.274,0.141c-0.416,0-0.785-0.103-1.107-0.309c-0.322-0.206-0.512-0.426-0.571-0.66 c-0.059-0.234-0.089-0.445-0.089-0.634c0-0.044,0-0.088,0-0.131s0-0.081,0-0.112c0.153,0.127,0.339,0.22,0.558,0.279 c0.219,0.059,0.414,0.089,0.584,0.089c0.289,0,0.523-0.085,0.703-0.256c0.179-0.171,0.269-0.372,0.269-0.604 c0-0.718-0.431-1.077-1.294-1.077c-0.679,0-1.225,0.199-1.639,0.598c-0.414,0.398-0.621,0.808-0.621,1.228 c0,0.28,0.04,0.497,0.122,0.65c0.081,0.153,0.233,0.44,0.456,0.86c-0.223,0.07-0.429,0.12-0.617,0.151 c-0.145,0.024-0.274,0.038-0.387,0.043v-0.024h-0.427c-0.368,0-0.675-0.195-0.923-0.584c-0.247-0.39-0.389-0.585-0.424-0.585 c-0.254,0-0.43,0.195-0.529,0.585c-0.099,0.39-0.496,0.584-1.192,0.584h-0.276H10.85h-0.401c-0.053-0.223-0.09-0.562-0.112-1.018 c0-0.298,0-0.593,0-0.887c0-0.298,0.003-0.588,0.01-0.87c0.007-0.282,0.01-0.564,0.01-0.844c0-0.429-0.104-0.774-0.312-1.034 c-0.208-0.26-0.467-0.391-0.778-0.391c-0.28,0-0.51,0.045-0.69,0.135c-0.18,0.09-0.269,0.305-0.269,0.647 c0,0.136,0.113,0.275,0.338,0.417c0.225,0.142,0.362,0.266,0.41,0.371c0.048,0.105,0.093,0.244,0.135,0.417 c0.042,0.173,0.043,0.301,0.003,0.384c-0.661,0.18-1.32,0.359-1.977,0.538c-0.565,0.32-0.847,0.847-0.847,1.583 c0,0.792,0.173,1.292,0.519,1.497c0.346,0.206,0.694,0.335,1.044,0.388c0.053-0.018,0.117-0.029,0.194-0.033 c0.076-0.004,0.281-0.007,0.614-0.007c0.044,0,0.108,0,0.194,0s0.163,0.004,0.233,0.013c-0.044,0.096-0.158,0.236-0.342,0.42 c-0.184,0.184-0.293,0.331-0.328,0.44c0.6,0,1.03-0.143,1.291-0.43c0.26-0.287,0.618-0.43,1.074-0.43c0.153,0,0.279,0,0.378,0 s0.17,0,0.213,0l-0.236-0.013h0.867c0.153,0,0.267-0.06,0.342-0.181c0.074-0.12,0.175-0.299,0.302-0.535 c0.109,0.101,0.233,0.252,0.371,0.453c0.138,0.201,0.257,0.302,0.358,0.302c0.053,0,0.118-0.013,0.197-0.039h0.959h0.374h1.57 c0.092,0,0.465-0.043,1.12-0.128c0.654-0.085,1.393-0.128,2.216-0.128c0.035,0,0.21,0.023,0.525,0.069s0.543,0.069,0.683,0.069 c0.263,0,0.463-0.049,0.601-0.148c0.138-0.098,0.207-0.283,0.207-0.555C21.91,135.579,21.834,135.357,21.683,135.237z M8.847,135.391c-0.061,0-0.195,0.004-0.401,0.013c-0.206,0-0.379-0.022-0.519-0.066c-0.14-0.044-0.21-0.129-0.21-0.256 c0-0.171,0.021-0.327,0.062-0.47c0.042-0.142,0.112-0.256,0.21-0.341s0.257-0.175,0.476-0.269 c0.219-0.094,0.409-0.141,0.571-0.141c0.197,0,0.296,0.081,0.296,0.243l0.066,0.63l0.026,0.23 C9.425,135.249,9.232,135.391,8.847,135.391z" />

        <path
            d="M38.67,132.311c0.241,0,0.426-0.078,0.555-0.233c0.129-0.155,0.194-0.327,0.194-0.516c0-0.219-0.049-0.382-0.148-0.489 c-0.099-0.107-0.264-0.161-0.496-0.161c-0.223,0-0.405,0.07-0.545,0.21c-0.14,0.14-0.21,0.287-0.21,0.44 c0,0.18,0.077,0.349,0.23,0.509C38.403,132.231,38.543,132.311,38.67,132.311z" />

        <path
            d="M40.319,132.311c0.219,0,0.417-0.06,0.594-0.181c0.177-0.12,0.266-0.31,0.266-0.568c0-0.188-0.044-0.344-0.131-0.466 c-0.088-0.123-0.258-0.184-0.512-0.184c-0.223,0-0.405,0.07-0.545,0.21c-0.14,0.14-0.21,0.287-0.21,0.44 c0,0.267,0.059,0.448,0.177,0.542C40.076,132.198,40.196,132.267,40.319,132.311z" />

        <path
            d="M49.434,135.306c-0.162-0.114-0.414-0.171-0.755-0.171h-0.348c-0.25,0-0.471-0.022-0.663-0.066 c-0.193-0.044-0.404-0.158-0.634-0.341s-0.598-0.624-1.103-1.32c-0.506-0.696-1.122-1.044-1.849-1.044 c-0.394,0-0.726,0.085-0.995,0.256c-0.269,0.171-0.404,0.445-0.404,0.821c0,0.236,0.051,0.458,0.154,0.663 c0.103,0.206,0.312,0.309,0.627,0.309c0.123,0,0.243-0.045,0.361-0.135c0.118-0.09,0.258-0.202,0.42-0.338 c0.293,0.127,0.589,0.252,0.887,0.374c0.377,0.188,0.565,0.512,0.565,0.972c-0.433,0.035-0.941,0.07-1.524,0.105 c-0.582,0.035-1.143,0.052-1.681,0.052c-0.241,0-0.444-0.002-0.611-0.006c-0.079-0.002-0.153-0.002-0.23-0.003v-0.003h-0.427 c-0.368,0-0.675-0.195-0.923-0.584c-0.247-0.39-0.389-0.585-0.424-0.585c-0.254,0-0.43,0.195-0.529,0.585 c-0.099,0.39-0.496,0.584-1.192,0.584h-0.282h-0.361h-0.499c-0.083,0-0.258-0.246-0.525-0.739 c-0.267-0.493-0.687-0.739-1.261-0.739c-0.407,0-0.72,0.15-0.939,0.45c-0.219,0.3-0.388,0.643-0.506,1.028h-0.637h-0.486h-0.801 h-0.512h-0.775H30.06h-0.775h-0.512h-0.775h-0.512h-0.874h-0.414h-0.512c-0.044-0.171-0.113-0.434-0.207-0.791 c-0.094-0.357-0.213-0.877-0.358-1.56c-0.145-0.683-0.274-1.419-0.387-2.207c-0.009-0.096,0.022-0.351,0.092-0.765 c0.07-0.414,0.105-0.706,0.105-0.877c0-0.258-0.052-0.477-0.154-0.657c-0.103-0.179-0.244-0.269-0.424-0.269 c-0.232,0-0.474,0.114-0.726,0.341c-0.252,0.228-0.378,0.567-0.378,1.018c0,0.285,0.083,0.576,0.25,0.873 c0.166,0.298,0.326,0.576,0.479,0.834l0.722,4.046c0,0.727-0.088,1.27-0.263,1.629c-0.236,0.311-0.398,0.552-0.486,0.722 l0.066,0.203c0.42-0.144,0.748-0.373,0.982-0.686c0.234-0.313,0.394-0.492,0.479-0.535c0.085-0.044,0.227-0.066,0.424-0.066 c0.118,0,0.215,0.001,0.296,0.001v0.038h1.287h0.512h0.775h0.512h0.775h0.512h0.775h0.512h1.287v-0.013c0.072,0,0.15,0,0.236,0 c0.061,0,0.146,0,0.253,0c0.107,0,0.181,0.004,0.22,0.013c0.053,0,0.202,0.19,0.45,0.571c0.247,0.381,0.625,0.571,1.133,0.571 c0.46,0,0.808-0.191,1.044-0.571c0.236-0.381,0.414-0.571,0.532-0.571h0.499h0.361h0.873c0.153,0,0.267-0.06,0.342-0.181 c0.074-0.12,0.175-0.299,0.302-0.535c0.109,0.101,0.233,0.252,0.371,0.453c0.138,0.201,0.257,0.302,0.358,0.302 c0.053,0,0.118-0.013,0.197-0.039h1.333v-0.004l0.493-0.009c0.411,0,0.97-0.018,1.675-0.053c0.705-0.035,1.699-0.053,2.982-0.053 c0.394,0,0.844,0.064,1.35,0.191c0.506,0.127,0.785,0.19,0.837,0.19c0.245,0,0.421-0.078,0.529-0.233 c0.107-0.155,0.161-0.375,0.161-0.66C49.677,135.682,49.596,135.42,49.434,135.306z M35.682,136.422 c-0.044,0.131-0.142,0.197-0.296,0.197c-0.25,0-0.407-0.188-0.473-0.565c-0.018-0.092-0.026-0.16-0.026-0.204 c0-0.171,0.034-0.318,0.102-0.443c0.068-0.125,0.161-0.187,0.279-0.187c0.153,0,0.267,0.067,0.342,0.2 c0.074,0.134,0.12,0.295,0.138,0.483C35.747,136.118,35.726,136.291,35.682,136.422z" />

        <path
            d="M46.354,137.677c-0.223,0-0.405,0.069-0.545,0.207c-0.14,0.138-0.21,0.283-0.21,0.437c0,0.179,0.077,0.35,0.23,0.512 c0.153,0.162,0.293,0.243,0.42,0.243c0.232,0,0.415-0.081,0.548-0.243c0.133-0.162,0.2-0.333,0.2-0.512 C46.998,137.891,46.783,137.677,46.354,137.677z" />

        <path
            d="M58.333,127.352c-0.127,0-0.28,0.053-0.46,0.158l-0.026,0.026c-0.131,0.153-0.267,0.337-0.407,0.552 c-0.14,0.215-0.21,0.416-0.21,0.604c0,0.236,0.129,0.39,0.387,0.46c0.057,0.026,0.114,0.05,0.171,0.072 c0.057,0.022,0.109,0.033,0.158,0.033c0.096,0.263,0.16,0.524,0.19,0.785c0.031,0.26,0.046,0.584,0.046,0.969 c0,0.149-0.004,0.385-0.013,0.709c-0.009,0.324-0.013,0.571-0.013,0.742c0,0.368-0.043,0.771-0.128,1.208 c-0.085,0.438-0.172,0.832-0.259,1.182v-0.992c0-1.436-0.43-2.704-1.291-3.803c-0.86-1.099-1.974-1.648-3.34-1.648 c-0.438,0-0.883,0.209-1.336,0.627s-0.763,0.869-0.929,1.353c-0.166,0.484-0.25,0.875-0.25,1.172 c0.031,0.018,0.059,0.031,0.085,0.039c0.341-0.709,0.637-1.228,0.887-1.557c0.25-0.328,0.53-0.51,0.841-0.545 c0.311-0.035,0.503-0.057,0.578-0.066c0.074-0.009,0.149-0.013,0.223-0.013c1.112,0,2.038,0.537,2.778,1.612 c0.74,1.075,1.11,2.278,1.11,3.609v0.532c0,0.21-0.126,0.362-0.378,0.456c-0.252,0.094-0.607,0.178-1.064,0.253 c-0.458,0.075-0.853,0.112-1.185,0.112c-0.771,0-1.462-0.172-2.075-0.516c-0.613-0.344-1.127-0.879-1.543-1.606 c-0.026-0.083-0.079-0.232-0.158-0.446c-0.053-0.096-0.103-0.195-0.151-0.296c-0.009,0.066-0.013,0.16-0.013,0.282 c0,0.333,0.056,0.668,0.167,1.005c0.112,0.337,0.222,0.585,0.332,0.742c0.635,0.819,1.208,1.317,1.721,1.494 c0.512,0.177,1.252,0.266,2.22,0.266l0.374-0.026c-0.018,0.162,0.014,0.33,0.095,0.506c0.081,0.175,0.177,0.301,0.289,0.378 c0.112,0.077,0.248,0.115,0.41,0.115c0.306,0,0.635-0.107,0.985-0.322c0.223-0.153,0.362-0.35,0.417-0.591 c0.055-0.241,0.108-0.532,0.161-0.874c0.214-0.153,0.429-0.425,0.644-0.814c0.214-0.39,0.383-0.984,0.506-1.783 c0.123-0.799,0.184-1.772,0.184-2.919l0.039-1.307c0-0.543-0.064-1-0.19-1.373C58.784,127.538,58.592,127.352,58.333,127.352z" />

        <path
            d="M61.545,130.255c0-0.289,0.034-0.554,0.102-0.795c0.068-0.241,0.132-0.469,0.194-0.683 c0.026-0.136-0.008-0.306-0.102-0.512c-0.094-0.206-0.257-0.309-0.489-0.309c-0.315,0-0.619,0.163-0.91,0.489 c-0.291,0.326-0.415,0.686-0.371,1.08c0.109,0.136,0.218,0.266,0.325,0.391c0.107,0.125,0.178,0.301,0.213,0.529l0.23,2.542 c0.017,0.206,0.035,0.433,0.053,0.683c0.017,0.25,0.026,0.455,0.026,0.617c0,0.18-0.009,0.366-0.026,0.558 c-0.018,0.193-0.058,0.426-0.122,0.699c-0.064,0.274-0.173,0.554-0.328,0.841c-0.155,0.287-0.43,0.671-0.824,1.153 c0.727-0.206,1.309-0.66,1.747-1.363c0.438-0.703,0.657-1.242,0.657-1.619c0-0.473-0.062-1.163-0.187-2.069 C61.607,131.582,61.545,130.838,61.545,130.255z" />

        <path
            d="M66.579,130.062c0.12-0.059,0.305-0.246,0.555-0.562c0.053,0.075,0.125,0.173,0.217,0.296 c0.088,0.092,0.23,0.138,0.427,0.138c0.219,0,0.42-0.061,0.604-0.184c0.184-0.123,0.276-0.278,0.276-0.466 c0-0.131-0.064-0.289-0.19-0.473c-0.127-0.184-0.285-0.276-0.473-0.276c-0.285,0-0.488,0.056-0.611,0.167 c-0.123,0.112-0.241,0.305-0.355,0.581c-0.101-0.223-0.196-0.368-0.286-0.433c-0.09-0.066-0.246-0.099-0.47-0.099 c-0.206,0-0.382,0.039-0.529,0.118c-0.147,0.079-0.22,0.254-0.22,0.526c0,0.232,0.067,0.416,0.2,0.552 c0.133,0.136,0.281,0.204,0.443,0.204C66.322,130.15,66.458,130.121,66.579,130.062z" />

        <path
            d="M73.452,136.501c0.153-0.315,0.23-0.685,0.23-1.11c0-0.591-0.135-1.084-0.404-1.478c-0.269-0.394-0.516-0.591-0.739-0.591 c-0.289,0-0.519,0.094-0.69,0.282c-0.171,0.188-0.256,0.381-0.256,0.578c0,0.188,0.063,0.354,0.19,0.496 c0.127,0.142,0.28,0.214,0.46,0.214c0.206,0,0.322,0.025,0.348,0.076s0.055,0.097,0.085,0.141 c0.031,0.044,0.046,0.116,0.046,0.217c0,0.061-0.004,0.113-0.013,0.154c-0.009,0.042-0.022,0.08-0.039,0.115 c-0.385-0.101-0.598-0.153-0.637-0.158c-0.039-0.004-0.243-0.007-0.611-0.007H70.89h-0.368h-0.401 c-0.053-0.223-0.09-0.562-0.112-1.018c0-0.298,0-0.593,0-0.887c0-0.298,0.003-0.588,0.01-0.87c0.007-0.282,0.01-0.564,0.01-0.844 c0-0.429-0.104-0.774-0.312-1.034c-0.208-0.26-0.467-0.391-0.778-0.391c-0.28,0-0.51,0.045-0.69,0.135 c-0.18,0.09-0.269,0.305-0.269,0.647c0,0.136,0.113,0.275,0.338,0.417c0.225,0.142,0.362,0.266,0.41,0.371 c0.048,0.105,0.093,0.244,0.135,0.417c0.042,0.173,0.043,0.301,0.003,0.384c-0.661,0.18-1.32,0.359-1.977,0.538 c-0.565,0.32-0.847,0.847-0.847,1.583c0,0.792,0.173,1.292,0.519,1.497c0.346,0.206,0.694,0.335,1.044,0.388 c0.053-0.018,0.117-0.029,0.194-0.033c0.076-0.004,0.281-0.007,0.614-0.007c0.044,0,0.108,0,0.194,0 c0.085,0,0.163,0.004,0.233,0.013c-0.044,0.096-0.158,0.236-0.342,0.42c-0.184,0.184-0.293,0.331-0.328,0.44 c0.6,0,1.03-0.143,1.291-0.43c0.26-0.287,0.618-0.43,1.074-0.43c0.153,0,0.279,0,0.378,0c0.099,0,0.17,0,0.213,0l-0.236-0.013 h0.381c0.574,0,0.959,0.031,1.156,0.092c0.197,0.061,0.35,0.114,0.46,0.158C73.11,136.974,73.299,136.816,73.452,136.501z M68.52,135.391c-0.061,0-0.195,0.004-0.401,0.013c-0.206,0-0.379-0.022-0.519-0.066c-0.14-0.044-0.21-0.129-0.21-0.256 c0-0.171,0.021-0.327,0.062-0.47c0.042-0.142,0.112-0.256,0.21-0.341c0.099-0.085,0.257-0.175,0.476-0.269 c0.219-0.094,0.409-0.141,0.571-0.141c0.197,0,0.296,0.081,0.296,0.243l0.066,0.63l0.026,0.23 C69.098,135.249,68.905,135.391,68.52,135.391z" />

        <path
            d="M73.439,137.959c-0.223,0-0.405,0.069-0.545,0.207c-0.14,0.138-0.21,0.283-0.21,0.437c0,0.272,0.058,0.454,0.174,0.548 c0.116,0.094,0.237,0.163,0.365,0.207c0.214,0,0.411-0.06,0.591-0.181c0.179-0.12,0.269-0.312,0.269-0.575 c0-0.188-0.045-0.343-0.135-0.463C73.858,138.019,73.688,137.959,73.439,137.959z" />

        <path
            d="M71.784,138.104c-0.223,0-0.405,0.07-0.545,0.21c-0.14,0.14-0.21,0.287-0.21,0.44c0,0.179,0.077,0.349,0.23,0.509 c0.153,0.16,0.293,0.24,0.42,0.24c0.241,0,0.426-0.078,0.555-0.233c0.129-0.155,0.194-0.327,0.194-0.516 c0-0.215-0.049-0.377-0.148-0.486C72.181,138.158,72.016,138.104,71.784,138.104z" />

        <path
            d="M90.206,136.724c0.118,0,0.265,0.096,0.44,0.289c0.175,0.193,0.298,0.289,0.368,0.289c0.512,0,0.86-0.336,1.044-1.008 c0.184-0.672,0.276-1.35,0.276-2.033c0-0.293-0.022-0.606-0.066-0.939c-0.044-0.333-0.08-0.6-0.108-0.801 c-0.029-0.201-0.092-0.58-0.19-1.136c-0.099-0.556-0.148-1.057-0.148-1.504c-0.009-0.066-0.002-0.182,0.02-0.348 c0.022-0.166,0.033-0.298,0.033-0.394c0-0.28-0.078-0.534-0.233-0.762c-0.155-0.228-0.314-0.341-0.476-0.341 c-0.25,0-0.494,0.114-0.732,0.341c-0.239,0.228-0.358,0.504-0.358,0.828c0,0.333,0.132,0.717,0.397,1.153 c0.265,0.436,0.417,0.748,0.456,0.936c0.039,0.188,0.1,0.456,0.181,0.804c0.081,0.348,0.121,0.748,0.121,1.199 c0,0.377-0.011,0.782-0.033,1.215c-0.022,0.434-0.046,0.83-0.072,1.189c-0.066-0.044-0.152-0.1-0.259-0.167 s-0.218-0.102-0.332-0.102H89.7c-0.394-0.035-0.809-0.091-1.245-0.167c-0.436-0.077-0.789-0.224-1.061-0.443 c-0.272-0.219-0.666-0.683-1.182-1.392c-0.517-0.709-1.147-1.064-1.891-1.064c-0.394,0-0.726,0.085-0.995,0.256 c-0.269,0.171-0.404,0.445-0.404,0.821c0,0.254,0.049,0.479,0.148,0.676c0.099,0.197,0.314,0.296,0.647,0.296 c0.162,0,0.308-0.059,0.437-0.177c0.129-0.118,0.24-0.217,0.332-0.296c0.293,0.127,0.589,0.252,0.887,0.374 c0.377,0.188,0.565,0.512,0.565,0.972c-0.46,0.044-0.936,0.081-1.428,0.112c-0.493,0.031-1.008,0.046-1.547,0.046l-0.131-0.003 v-0.01h-0.86c-0.083,0-0.258-0.246-0.525-0.739c-0.267-0.493-0.687-0.739-1.261-0.739c-0.407,0-0.72,0.15-0.939,0.45 c-0.219,0.3-0.388,0.643-0.506,1.028h-0.736h-0.387h-0.539c-0.044-0.171-0.113-0.434-0.207-0.791 c-0.094-0.357-0.213-0.877-0.358-1.56c-0.145-0.683-0.274-1.419-0.387-2.207c-0.009-0.096,0.022-0.351,0.092-0.765 c0.07-0.414,0.105-0.706,0.105-0.877c0-0.258-0.052-0.477-0.154-0.657c-0.103-0.179-0.244-0.269-0.424-0.269 c-0.232,0-0.474,0.114-0.726,0.341c-0.252,0.228-0.378,0.567-0.378,1.018c0,0.285,0.083,0.576,0.25,0.873 c0.166,0.298,0.326,0.576,0.479,0.834l0.722,4.046c0,0.727-0.088,1.27-0.263,1.629c-0.236,0.311-0.398,0.552-0.486,0.722 l0.066,0.203c0.42-0.144,0.748-0.373,0.982-0.686c0.234-0.313,0.394-0.492,0.479-0.535c0.085-0.044,0.227-0.066,0.424-0.066 c0.131,0,0.238,0.001,0.322,0.002v0.038c0.096-0.009,0.2-0.013,0.312-0.013c0.005,0,0.01,0,0.015,0 c0.02,0.004,0.041,0.008,0.06,0.013v-0.013c0.096,0,0.207,0,0.335,0c0.061,0,0.146,0,0.253,0c0.107,0,0.181,0.004,0.22,0.013 c0.053,0,0.202,0.19,0.45,0.571c0.247,0.381,0.625,0.571,1.133,0.571c0.46,0,0.808-0.191,1.044-0.571 c0.236-0.381,0.414-0.571,0.532-0.571h0.86v-0.011l0.092-0.003c0.438,0,0.919-0.018,1.445-0.053 c0.525-0.035,1.421-0.053,2.686-0.053c0.42,0,0.881,0.02,1.382,0.059c0.501,0.039,0.78,0.059,0.837,0.059h0.079H89.7H90.206z M80.637,136.422c-0.044,0.131-0.142,0.197-0.296,0.197c-0.25,0-0.407-0.188-0.473-0.565c-0.018-0.092-0.026-0.16-0.026-0.204 c0-0.171,0.034-0.318,0.102-0.443c0.068-0.125,0.161-0.187,0.279-0.187c0.153,0,0.267,0.067,0.342,0.2 c0.074,0.134,0.12,0.295,0.138,0.483C80.702,136.118,80.68,136.291,80.637,136.422z" />

        <path
            d="M93.69,135.545c-0.064,0.274-0.173,0.554-0.328,0.841c-0.155,0.287-0.43,0.671-0.824,1.153 c0.727-0.206,1.309-0.66,1.747-1.363c0.438-0.703,0.657-1.242,0.657-1.619c0-0.473-0.062-1.163-0.187-2.069 c-0.125-0.906-0.187-1.651-0.187-2.233c0-0.289,0.034-0.554,0.102-0.795c0.068-0.241,0.132-0.469,0.194-0.683 c0.026-0.136-0.008-0.306-0.102-0.512c-0.094-0.206-0.257-0.309-0.489-0.309c-0.315,0-0.619,0.163-0.91,0.489 c-0.291,0.326-0.415,0.686-0.371,1.08c0.109,0.136,0.218,0.266,0.325,0.391c0.107,0.125,0.178,0.301,0.213,0.529l0.23,2.542 c0.017,0.206,0.035,0.433,0.053,0.683c0.017,0.25,0.026,0.455,0.026,0.617c0,0.18-0.009,0.366-0.026,0.558 C93.794,135.039,93.753,135.272,93.69,135.545z" />

        <path
            d="M98.126,132.475c-0.433,0-0.852,0.201-1.254,0.604c-0.403,0.403-0.604,1.04-0.604,1.911c0,0.565,0.072,0.988,0.217,1.271 c0.145,0.282,0.367,0.45,0.667,0.502c0.3,0.052,0.48,0.079,0.542,0.079c0.092,0,0.271-0.033,0.539-0.099 c0.267-0.066,0.455-0.099,0.565-0.099c0,0.946-0.379,1.764-1.136,2.456c-0.758,0.692-1.655,1.114-2.693,1.267 c-0.206,0.026-0.403,0.039-0.591,0.039c-0.377,0-0.765-0.052-1.166-0.154c-0.401-0.103-0.849-0.314-1.346-0.634 c-0.497-0.32-0.887-0.61-1.169-0.87c-0.282-0.261-0.621-0.686-1.015-1.277c-0.009-0.07-0.02-0.15-0.033-0.24 c-0.013-0.09-0.057-0.139-0.131-0.148c-0.07-0.026-0.105,0.009-0.105,0.105c0,0.026,0.013,0.089,0.039,0.187 c0.026,0.099,0.089,0.294,0.187,0.588c0.099,0.293,0.297,0.614,0.594,0.962c0.298,0.348,0.706,0.772,1.225,1.271 c0.519,0.499,1.101,0.824,1.747,0.975c0.646,0.151,1.212,0.227,1.698,0.227c1.34,0,2.553-0.529,3.638-1.586 c1.086-1.058,1.629-2.357,1.629-3.898c0-0.95-0.188-1.761-0.565-2.433C99.227,132.811,98.735,132.475,98.126,132.475z M98.576,135.368c-0.085,0.09-0.264,0.152-0.535,0.187c-0.131,0.018-0.272-0.057-0.42-0.223c-0.149-0.166-0.215-0.317-0.197-0.453 c0.009-0.061,0.035-0.254,0.079-0.578c0.074-0.276,0.21-0.414,0.407-0.414c0.232-0.026,0.42,0.085,0.565,0.335 c0.145,0.25,0.217,0.451,0.217,0.604c0,0.035,0.004,0.103,0.013,0.204C98.704,135.166,98.661,135.278,98.576,135.368z" />

        <path
            d="M105.124,130.062c0.12-0.059,0.305-0.246,0.555-0.562c0.053,0.075,0.125,0.173,0.217,0.296 c0.088,0.092,0.23,0.138,0.427,0.138c0.219,0,0.42-0.061,0.604-0.184c0.184-0.123,0.276-0.278,0.276-0.466 c0-0.131-0.064-0.289-0.19-0.473c-0.127-0.184-0.285-0.276-0.473-0.276c-0.285,0-0.488,0.056-0.611,0.167 c-0.123,0.112-0.241,0.305-0.355,0.581c-0.101-0.223-0.196-0.368-0.286-0.433c-0.09-0.066-0.246-0.099-0.47-0.099 c-0.206,0-0.382,0.039-0.529,0.118c-0.147,0.079-0.22,0.254-0.22,0.526c0,0.232,0.067,0.416,0.2,0.552 c0.133,0.136,0.281,0.204,0.443,0.204C104.867,130.15,105.003,130.121,105.124,130.062z" />

        <path
            d="M135.374,132.521c-0.029-0.201-0.092-0.58-0.19-1.136c-0.099-0.556-0.148-1.057-0.148-1.504 c-0.009-0.066-0.002-0.182,0.02-0.348c0.022-0.166,0.033-0.298,0.033-0.394c0-0.28-0.078-0.534-0.233-0.762 c-0.156-0.228-0.314-0.341-0.476-0.341c-0.25,0-0.494,0.114-0.732,0.341c-0.239,0.228-0.358,0.504-0.358,0.828 c0,0.333,0.132,0.717,0.397,1.153c0.265,0.436,0.417,0.748,0.456,0.936c0.039,0.188,0.1,0.456,0.181,0.804 c0.081,0.348,0.121,0.748,0.121,1.199c0,0.377-0.011,0.782-0.033,1.215c-0.022,0.434-0.046,0.83-0.072,1.189 c-0.066-0.044-0.152-0.1-0.259-0.167s-0.218-0.102-0.332-0.102h-0.821h-0.361h-0.368c-0.07-0.858-0.417-1.576-1.041-2.154 c-0.624-0.578-1.361-0.867-2.21-0.867c-0.959,0-1.753,0.176-2.381,0.529c-0.628,0.353-1.131,0.753-1.507,1.202 c-0.377,0.449-0.705,0.84-0.985,1.172c-0.131-0.657-0.359-0.985-0.683-0.985c-0.136,0-0.23,0.092-0.282,0.276 c-0.052,0.184-0.079,0.464-0.079,0.841l-0.158-0.003v-0.01h-1.287h-0.512h-0.775h-0.512h-0.775h-0.512h-0.775h-0.512h-0.913 c-0.394-0.035-0.809-0.091-1.245-0.167c-0.436-0.077-0.789-0.224-1.061-0.443c-0.272-0.219-0.666-0.683-1.182-1.392 c-0.517-0.709-1.147-1.064-1.891-1.064c-0.394,0-0.726,0.085-0.995,0.256c-0.269,0.171-0.404,0.445-0.404,0.821 c0,0.254,0.049,0.479,0.148,0.676c0.099,0.197,0.314,0.296,0.647,0.296c0.162,0,0.308-0.059,0.437-0.177 c0.129-0.118,0.24-0.217,0.332-0.296c0.293,0.127,0.589,0.252,0.887,0.374c0.377,0.188,0.565,0.512,0.565,0.972 c-0.46,0.044-0.936,0.081-1.428,0.112c-0.493,0.031-1.008,0.046-1.547,0.046l-0.125-0.003v-0.01h-0.768 c-0.053-0.223-0.09-0.562-0.112-1.018c0-0.298,0-0.593,0-0.887c0-0.298,0.003-0.588,0.01-0.87c0.007-0.282,0.01-0.564,0.01-0.844 c0-0.429-0.104-0.774-0.312-1.034c-0.208-0.26-0.467-0.391-0.778-0.391c-0.28,0-0.51,0.045-0.69,0.135 c-0.18,0.09-0.269,0.305-0.269,0.647c0,0.136,0.113,0.275,0.338,0.417c0.225,0.142,0.362,0.266,0.41,0.371 c0.048,0.105,0.093,0.244,0.135,0.417c0.042,0.173,0.043,0.301,0.003,0.384c-0.661,0.18-1.32,0.359-1.977,0.538 c-0.565,0.32-0.847,0.847-0.847,1.583c0,0.792,0.173,1.292,0.519,1.497c0.346,0.206,0.694,0.335,1.044,0.388 c0.053-0.018,0.117-0.029,0.194-0.033c0.076-0.004,0.281-0.007,0.614-0.007c0.044,0,0.108,0,0.194,0s0.163,0.004,0.233,0.013 c-0.044,0.096-0.158,0.236-0.342,0.42c-0.184,0.184-0.293,0.331-0.328,0.44c0.6,0,1.03-0.143,1.291-0.43 c0.26-0.287,0.618-0.43,1.074-0.43c0.153,0,0.279,0,0.378,0c0.099,0,0.17,0,0.213,0l-0.236-0.013v-0.011l0.085-0.002 c0.438,0,0.919-0.018,1.445-0.053c0.525-0.035,1.421-0.053,2.686-0.053c0.42,0,0.881,0.02,1.382,0.059 c0.501,0.039,0.78,0.059,0.837,0.059h0.053h0.374h0.913h0.512h0.775h0.512h0.775h0.512h0.775h0.512h0.801 c0.044,0.009,0.136,0.013,0.276,0.013h0.177h0.243h0.374c0.066,0,0.148,0.076,0.246,0.227c0.099,0.151,0.259,0.227,0.483,0.227 c0.214,0,0.405-0.076,0.571-0.227c0.166-0.151,0.305-0.238,0.417-0.259c0.112-0.022,0.246-0.046,0.404-0.072 c0.158-0.026,0.322-0.039,0.493-0.039c0.25,0.018,0.549,0.037,0.9,0.059c0.35,0.022,0.893,0.033,1.629,0.033 c0.985,0,1.54-0.04,1.665-0.121c0.125-0.081,0.281-0.121,0.47-0.121c0.162,0,0.31,0.134,0.443,0.401 c0.133,0.267,0.31,0.401,0.529,0.401c0.162,0,0.269-0.087,0.322-0.259c0.052-0.173,0.19-0.259,0.414-0.259 c0.28,0,0.433,0.004,0.46,0.013c0.026,0.009,0.035,0.018,0.026,0.026v-0.039h0.493c0.118,0,0.265,0.096,0.44,0.289 c0.175,0.193,0.298,0.289,0.368,0.289c0.512,0,0.86-0.336,1.044-1.008c0.184-0.672,0.276-1.35,0.276-2.033 c0-0.293-0.022-0.606-0.066-0.939C135.439,132.99,135.402,132.722,135.374,132.521z M107.065,135.391 c-0.061,0-0.195,0.004-0.401,0.013c-0.206,0-0.379-0.022-0.519-0.066c-0.14-0.044-0.21-0.129-0.21-0.256 c0-0.171,0.021-0.327,0.062-0.47c0.042-0.142,0.112-0.256,0.21-0.341c0.099-0.085,0.257-0.175,0.476-0.269 c0.219-0.094,0.409-0.141,0.571-0.141c0.197,0,0.296,0.081,0.296,0.243l0.066,0.63l0.026,0.23 C107.642,135.249,107.45,135.391,107.065,135.391z M129.122,135.371c-0.716,0.057-1.304,0.085-1.763,0.085 c-0.556,0-0.957-0.013-1.202-0.039c-0.245-0.026-0.444-0.061-0.598-0.105c0.32-0.512,0.736-0.914,1.248-1.205 c0.512-0.291,0.992-0.437,1.438-0.437c0.092,0,0.283,0.018,0.575,0.053c0.291,0.035,0.659,0.192,1.103,0.47 c0.444,0.278,0.732,0.592,0.864,0.942C130.393,135.236,129.838,135.315,129.122,135.371z" />

        <path
            d="M137.781,130.255c0-0.289,0.034-0.554,0.102-0.795c0.068-0.241,0.132-0.469,0.194-0.683 c0.026-0.136-0.008-0.306-0.102-0.512c-0.094-0.206-0.257-0.309-0.489-0.309c-0.315,0-0.618,0.163-0.91,0.489 c-0.291,0.326-0.415,0.686-0.371,1.08c0.109,0.136,0.218,0.266,0.325,0.391c0.107,0.125,0.178,0.301,0.213,0.529l0.23,2.542 c0.017,0.206,0.035,0.433,0.053,0.683c0.017,0.25,0.026,0.455,0.026,0.617c0,0.18-0.009,0.366-0.026,0.558 c-0.018,0.193-0.058,0.426-0.122,0.699c-0.064,0.274-0.173,0.554-0.328,0.841c-0.156,0.287-0.43,0.671-0.824,1.153 c0.727-0.206,1.309-0.66,1.747-1.363c0.438-0.703,0.657-1.242,0.657-1.619c0-0.473-0.062-1.163-0.187-2.069 C137.843,131.582,137.781,130.838,137.781,130.255z" />

        <path
            d="M143.242,130.679c0.129-0.155,0.194-0.327,0.194-0.516c0-0.219-0.049-0.382-0.148-0.489 c-0.099-0.107-0.264-0.161-0.496-0.161c-0.223,0-0.405,0.07-0.545,0.21c-0.14,0.14-0.21,0.287-0.21,0.44 c0,0.18,0.076,0.349,0.23,0.509c0.153,0.16,0.293,0.24,0.42,0.24C142.928,130.912,143.113,130.834,143.242,130.679z" />

        <path
            d="M144.598,130.695c0.214,0,0.411-0.06,0.591-0.181c0.179-0.12,0.269-0.31,0.269-0.568c0-0.188-0.045-0.342-0.135-0.463 c-0.09-0.12-0.262-0.181-0.516-0.181c-0.223,0-0.404,0.069-0.542,0.207c-0.138,0.138-0.207,0.284-0.207,0.437 c0,0.267,0.058,0.448,0.174,0.542C144.35,130.583,144.471,130.652,144.598,130.695z" />

        <path
            d="M143.564,136.412c0.274,0.313,0.713,0.47,1.317,0.47c0.285,0,0.562-0.054,0.831-0.161 c0.269-0.107,0.542-0.218,0.818-0.332c-0.026,0.171-0.089,0.383-0.187,0.637c-0.099,0.254-0.148,0.453-0.148,0.598 c0,0.087,0.004,0.158,0.013,0.21c0.582-0.355,1.004-0.853,1.264-1.494c0.26-0.641,0.391-1.321,0.391-2.039 c0-0.591-0.058-1.137-0.174-1.639c-0.116-0.501-0.238-0.945-0.365-1.33c0.017-0.057,0.04-0.135,0.069-0.233 s0.043-0.205,0.043-0.318c0-0.215-0.066-0.398-0.197-0.552c-0.131-0.153-0.368-0.23-0.709-0.23c-0.267,0-0.484,0.092-0.65,0.276 c-0.166,0.184-0.25,0.414-0.25,0.69c0,0.127,0.132,0.352,0.397,0.676c0.265,0.324,0.397,0.674,0.397,1.051 c-0.035,0-0.091-0.004-0.167-0.013c-0.077-0.009-0.141-0.013-0.194-0.013c-0.771,0-1.448,0.242-2.033,0.726 c-0.585,0.484-0.877,1.074-0.877,1.77C143.153,135.682,143.29,136.099,143.564,136.412z M144.595,134.902 c0.046-0.129,0.129-0.294,0.25-0.496c0.12-0.201,0.337-0.383,0.65-0.545c0.313-0.162,0.583-0.243,0.811-0.243 c0.105,0,0.207,0.04,0.305,0.121c0.099,0.081,0.161,0.284,0.187,0.608c0,0.188-0.015,0.356-0.046,0.502 c-0.031,0.147-0.1,0.292-0.207,0.437c-0.107,0.144-0.278,0.268-0.512,0.371c-0.234,0.103-0.463,0.154-0.686,0.154 c-0.197,0-0.369-0.045-0.516-0.135c-0.147-0.09-0.24-0.22-0.279-0.391C144.535,135.159,144.549,135.031,144.595,134.902z" />

        <path
            d="M155.937,135.545c-0.064,0.274-0.173,0.554-0.328,0.841c-0.155,0.287-0.43,0.671-0.824,1.153 c0.727-0.206,1.309-0.66,1.747-1.363c0.438-0.703,0.657-1.242,0.657-1.619c0-0.473-0.062-1.163-0.187-2.069 c-0.125-0.906-0.187-1.651-0.187-2.233c0-0.289,0.034-0.554,0.102-0.795c0.068-0.241,0.132-0.469,0.194-0.683 c0.026-0.136-0.008-0.306-0.102-0.512c-0.094-0.206-0.257-0.309-0.489-0.309c-0.315,0-0.618,0.163-0.91,0.489 c-0.291,0.326-0.415,0.686-0.371,1.08c0.109,0.136,0.218,0.266,0.325,0.391c0.107,0.125,0.178,0.301,0.213,0.529l0.23,2.542 c0.017,0.206,0.035,0.433,0.053,0.683c0.017,0.25,0.026,0.455,0.026,0.617c0,0.18-0.009,0.366-0.026,0.558 C156.041,135.039,156,135.272,155.937,135.545z" />

        <path
            d="M159.04,131.208c0.232,0,0.416-0.08,0.552-0.24c0.136-0.16,0.204-0.329,0.204-0.509c0-0.434-0.217-0.65-0.65-0.65 c-0.223,0-0.404,0.07-0.542,0.21c-0.138,0.14-0.207,0.287-0.207,0.44c0,0.18,0.076,0.349,0.227,0.509 C158.774,131.128,158.913,131.208,159.04,131.208z" />

        <path
            d="M167.874,133.483c-0.377-0.672-0.869-1.008-1.478-1.008c-0.433,0-0.852,0.201-1.254,0.604 c-0.403,0.403-0.604,1.04-0.604,1.911c0,0.565,0.072,0.988,0.217,1.271c0.145,0.282,0.367,0.45,0.667,0.502 c0.3,0.052,0.48,0.079,0.542,0.079c0.092,0,0.271-0.033,0.539-0.099c0.267-0.066,0.455-0.099,0.565-0.099 c0,0.946-0.379,1.764-1.136,2.456c-0.758,0.692-1.655,1.114-2.693,1.267c-0.206,0.026-0.403,0.039-0.591,0.039 c-0.377,0-0.765-0.052-1.166-0.154c-0.401-0.103-0.849-0.314-1.346-0.634c-0.068-0.044-0.133-0.087-0.197-0.129 c0.192-0.114,0.379-0.233,0.555-0.363c0.368-0.333,0.78-0.902,1.238-1.708c0.457-0.806,0.686-1.559,0.686-2.259 c0-0.661-0.152-1.238-0.456-1.731c-0.304-0.493-0.664-0.739-1.08-0.739c-0.517,0-0.775,0.331-0.775,0.992 c0,0.412,0.208,0.703,0.624,0.873c0.416,0.171,0.628,0.299,0.637,0.384c0.009,0.085,0.013,0.192,0.013,0.319 c0,0.744-0.24,1.445-0.719,2.102c-0.479,0.657-0.91,1.115-1.291,1.376c-0.078,0.053-0.16,0.103-0.246,0.152 c-0.055-0.047-0.109-0.093-0.158-0.139c-0.282-0.261-0.621-0.686-1.015-1.277c-0.009-0.07-0.02-0.15-0.033-0.24 c-0.013-0.09-0.057-0.139-0.131-0.148c-0.07-0.026-0.105,0.009-0.105,0.105c0,0.026,0.013,0.089,0.039,0.187 c0.026,0.099,0.089,0.294,0.187,0.588c0.098,0.293,0.297,0.614,0.594,0.962c0.05,0.059,0.105,0.12,0.161,0.183 c-0.219,0.09-0.456,0.168-0.713,0.234c-0.565,0.145-1.156,0.217-1.773,0.217c-1.156,0-2.099-0.25-2.831-0.749 c-0.297-0.203-0.576-0.437-0.839-0.699c0.136-0.208,0.276-0.437,0.422-0.693c0.457-0.806,0.686-1.559,0.686-2.259 c0-0.661-0.152-1.238-0.456-1.731c-0.304-0.493-0.664-0.739-1.08-0.739c-0.517,0-0.775,0.331-0.775,0.992 c0,0.412,0.208,0.703,0.624,0.873c0.416,0.171,0.628,0.299,0.637,0.384c0.009,0.085,0.013,0.192,0.013,0.319 c0,0.744-0.239,1.444-0.718,2.1c-0.136-0.184-0.267-0.378-0.392-0.583l-0.21-0.171c0.047,0.394,0.158,0.764,0.33,1.11 c-0.372,0.469-0.712,0.81-1.02,1.021c-0.381,0.26-0.854,0.463-1.419,0.607c-0.565,0.145-1.156,0.217-1.773,0.217 c-1.156,0-2.099-0.25-2.831-0.749c-0.731-0.499-1.357-1.178-1.878-2.036l-0.21-0.171c0.131,1.09,0.74,2.001,1.826,2.732 c1.086,0.731,2.224,1.097,3.415,1.097c0.823,0,1.564-0.121,2.223-0.364c0.659-0.243,1.249-0.557,1.77-0.942 c0.156-0.141,0.32-0.327,0.492-0.553c0.251,0.273,0.55,0.527,0.9,0.763c1.086,0.731,2.224,1.097,3.415,1.097 c0.823,0,1.564-0.121,2.223-0.364c0.211-0.078,0.413-0.166,0.61-0.258c0.124,0.124,0.255,0.252,0.395,0.387 c0.519,0.499,1.101,0.824,1.747,0.975c0.646,0.151,1.212,0.227,1.698,0.227c1.34,0,2.553-0.529,3.638-1.586 c1.086-1.058,1.629-2.357,1.629-3.898C168.438,134.966,168.25,134.155,167.874,133.483z M166.846,135.368 c-0.085,0.09-0.264,0.152-0.535,0.187c-0.131,0.018-0.272-0.057-0.42-0.223c-0.149-0.166-0.215-0.317-0.197-0.453 c0.009-0.061,0.035-0.254,0.079-0.578c0.074-0.276,0.21-0.414,0.407-0.414c0.232-0.026,0.42,0.085,0.565,0.335 c0.145,0.25,0.217,0.451,0.217,0.604c0,0.035,0.004,0.103,0.013,0.204C166.974,135.166,166.931,135.278,166.846,135.368z" />
    </g>

    <g transform="translate(0, 0)" stroke="none" stroke-width="0.25" stroke-miterlimit="10">
        <path d="M10.831,148.854h-1.79v3.294H8.038v-3.294H6.237v-0.991 h1.801v-3.294h1.003v3.294h1.79V148.854z" />

        <path
            d="M13.769,148.649c0.494,0,0.908,0.169,1.242,0.507 c0.334,0.338,0.501,0.754,0.501,1.248c0,0.494-0.167,0.91-0.501,1.248c-0.334,0.338-0.748,0.507-1.242,0.507 c-0.486,0-0.896-0.169-1.23-0.507c-0.334-0.338-0.501-0.754-0.501-1.248c0-0.494,0.167-0.91,0.501-1.248 C12.873,148.818,13.284,148.649,13.769,148.649z M14.714,150.393c0-0.28-0.091-0.511-0.274-0.694 c-0.183-0.183-0.406-0.274-0.67-0.274c-0.253,0-0.47,0.091-0.653,0.274c-0.183,0.183-0.274,0.414-0.274,0.694 c0,0.272,0.091,0.501,0.274,0.688c0.183,0.187,0.4,0.28,0.653,0.28c0.264,0,0.488-0.093,0.67-0.28 C14.623,150.894,14.714,150.665,14.714,150.393z" />

        <path d="M22.008,152.148h-5.615v-7.568h5.615v1.003h-4.606v5.562 h4.606V152.148z" />

        <path
            d="M25.086,148.649c0.494,0,0.908,0.169,1.242,0.507 c0.334,0.338,0.501,0.754,0.501,1.248c0,0.494-0.167,0.91-0.501,1.248c-0.334,0.338-0.748,0.507-1.242,0.507 c-0.486,0-0.896-0.169-1.23-0.507c-0.334-0.338-0.501-0.754-0.501-1.248c0-0.494,0.167-0.91,0.501-1.248 C24.19,148.818,24.6,148.649,25.086,148.649z M26.03,150.393c0-0.28-0.091-0.511-0.274-0.694c-0.183-0.183-0.406-0.274-0.67-0.274 c-0.253,0-0.47,0.091-0.653,0.274c-0.183,0.183-0.274,0.414-0.274,0.694c0,0.272,0.091,0.501,0.274,0.688 c0.183,0.187,0.4,0.28,0.653,0.28c0.264,0,0.488-0.093,0.67-0.28C25.939,150.894,26.03,150.665,26.03,150.393z" />

        <path d="M32.858,151.156v-6.588h1.003v7.579H27.71v-7.579h1.02 v6.588H32.858z" />

        <path
            d="M36.776,148.649c0.494,0,0.908,0.169,1.242,0.507 c0.334,0.338,0.501,0.754,0.501,1.248c0,0.494-0.167,0.91-0.501,1.248c-0.334,0.338-0.748,0.507-1.242,0.507 c-0.486,0-0.896-0.169-1.23-0.507c-0.334-0.338-0.501-0.754-0.501-1.248c0-0.494,0.167-0.91,0.501-1.248 C35.88,148.818,36.29,148.649,36.776,148.649z M37.72,150.393c0-0.28-0.091-0.511-0.274-0.694 c-0.183-0.183-0.406-0.274-0.67-0.274c-0.253,0-0.47,0.091-0.653,0.274c-0.183,0.183-0.274,0.414-0.274,0.694 c0,0.272,0.091,0.501,0.274,0.688c0.183,0.187,0.4,0.28,0.653,0.28c0.264,0,0.488-0.093,0.67-0.28 C37.629,150.894,37.72,150.665,37.72,150.393z" />

        <path
            d="M46.961,148.41c-0.008,1.034-0.38,1.913-1.116,2.638 c-0.737,0.725-1.626,1.087-2.667,1.087c-1.038,0-1.918-0.364-2.641-1.093c-0.723-0.729-1.092-1.606-1.108-2.632 c-0.008-1.049,0.354-1.95,1.084-2.702c0.731-0.752,1.619-1.128,2.664-1.128c1.049,0,1.944,0.376,2.685,1.128 C46.603,146.46,46.969,147.361,46.961,148.41z M45.912,148.41c0.008-0.781-0.258-1.448-0.796-2 c-0.538-0.552-1.185-0.824-1.938-0.816c-0.758,0.008-1.395,0.288-1.912,0.84c-0.517,0.552-0.775,1.207-0.775,1.965 c0.008,0.739,0.27,1.377,0.787,1.915c0.517,0.538,1.151,0.811,1.901,0.819c0.746,0.008,1.387-0.259,1.921-0.802 C45.633,149.789,45.904,149.149,45.912,148.41z M42.209,148.399c-0.016-0.272,0.068-0.513,0.251-0.723 c0.183-0.21,0.426-0.311,0.729-0.303c0.276,0.008,0.506,0.113,0.691,0.315c0.185,0.202,0.267,0.443,0.248,0.723 c-0.016,0.245-0.111,0.456-0.286,0.633c-0.175,0.177-0.393,0.265-0.653,0.265c-0.288,0.008-0.519-0.079-0.694-0.259 C42.32,148.868,42.225,148.651,42.209,148.399z" />

        <path d="M52.786,148.854h-1.79v3.294h-1.003v-3.294h-1.801v-0.991 h1.801v-3.294h1.003v3.294h1.79V148.854z" />

        <path d="M57.992,152.148h-0.991v-7.568h0.991V152.148z" />

        <path d="M66.807,148.854h-1.79v3.294h-1.003v-3.294h-1.801v-0.991 h1.801v-3.294h1.003v3.294h1.79V148.854z" />

        <path d="M72.317,144.568l3.195,7.579h-1.084l-2.664-6.291 l-2.67,6.291h-1.09l3.213-7.579H72.317z" />

        <path
            d="M78.153,148.865c0.494,0,0.908,0.159,1.242,0.478 c0.334,0.319,0.501,0.707,0.501,1.166c0,0.455-0.167,0.839-0.501,1.154c-0.334,0.315-0.748,0.472-1.242,0.472 c-0.486,0-0.896-0.157-1.23-0.472c-0.334-0.315-0.501-0.7-0.501-1.154c0-0.459,0.167-0.847,0.501-1.166 C77.257,149.025,77.667,148.865,78.153,148.865z M78.188,144.58c0.494,0,0.907,0.158,1.242,0.475 c0.334,0.317,0.501,0.706,0.501,1.169c0,0.455-0.167,0.84-0.501,1.154c-0.334,0.315-0.748,0.472-1.242,0.472 c-0.482,0-0.891-0.157-1.227-0.472c-0.336-0.315-0.504-0.7-0.504-1.154c0-0.463,0.168-0.852,0.504-1.169 C77.297,144.738,77.706,144.58,78.188,144.58z M79.144,150.498c0-0.276-0.095-0.508-0.286-0.697 c-0.191-0.188-0.426-0.283-0.706-0.283c-0.268,0-0.498,0.094-0.691,0.283c-0.192,0.189-0.289,0.421-0.289,0.697 c0,0.272,0.096,0.501,0.289,0.688c0.192,0.187,0.423,0.28,0.691,0.28c0.28,0,0.515-0.093,0.706-0.28 C79.049,150.999,79.144,150.77,79.144,150.498z M79.179,146.212c0-0.28-0.095-0.513-0.286-0.7c-0.191-0.187-0.426-0.28-0.705-0.28 c-0.268,0-0.498,0.093-0.688,0.28c-0.19,0.187-0.286,0.42-0.286,0.7c0,0.272,0.095,0.501,0.286,0.688 c0.19,0.187,0.42,0.28,0.688,0.28c0.28,0,0.515-0.093,0.705-0.28C79.084,146.714,79.179,146.484,79.179,146.212z" />

        <path
            d="M88.507,148.41c-0.008,1.034-0.38,1.913-1.116,2.638 c-0.737,0.725-1.626,1.087-2.667,1.087c-1.038,0-1.918-0.364-2.641-1.093c-0.723-0.729-1.092-1.606-1.108-2.632 c-0.008-1.049,0.354-1.95,1.084-2.702c0.731-0.752,1.619-1.128,2.664-1.128c1.049,0,1.944,0.376,2.685,1.128 C88.149,146.46,88.515,147.361,88.507,148.41z M87.458,148.41c0.008-0.781-0.258-1.448-0.796-2 c-0.538-0.552-1.185-0.824-1.938-0.816c-0.758,0.008-1.395,0.288-1.912,0.84c-0.517,0.552-0.775,1.207-0.775,1.965 c0.008,0.739,0.27,1.377,0.787,1.915c0.517,0.538,1.151,0.811,1.901,0.819c0.746,0.008,1.387-0.259,1.921-0.802 C87.179,149.789,87.45,149.149,87.458,148.41z M83.756,148.399c-0.016-0.272,0.068-0.513,0.251-0.723 c0.183-0.21,0.426-0.311,0.729-0.303c0.276,0.008,0.506,0.113,0.691,0.315c0.185,0.202,0.267,0.443,0.248,0.723 c-0.016,0.245-0.111,0.456-0.286,0.633c-0.175,0.177-0.393,0.265-0.653,0.265c-0.288,0.008-0.519-0.079-0.694-0.259 C83.867,148.868,83.771,148.651,83.756,148.399z" />

        <path d="M91.463,149.915l3.323,1.358v1.009l-5.136-2.07l2.379-2.017 l-2.291-1.994l5.049-1.924v1.003l-3.154,1.207l1.842,1.615L91.463,149.915z" />

        <path d="M103.025,144.568l3.195,7.579h-1.084l-2.664-6.291 l-2.67,6.291h-1.09l3.213-7.579H103.025z" />

        <path
            d="M111.846,148.865c0.494,0,0.908,0.159,1.242,0.478 c0.334,0.319,0.501,0.707,0.501,1.166c0,0.455-0.167,0.839-0.501,1.154c-0.334,0.315-0.748,0.472-1.242,0.472 c-0.486,0-0.896-0.157-1.23-0.472c-0.334-0.315-0.501-0.7-0.501-1.154c0-0.459,0.167-0.847,0.501-1.166 C110.95,149.025,111.36,148.865,111.846,148.865z M111.881,144.58c0.494,0,0.907,0.158,1.242,0.475 c0.334,0.317,0.501,0.706,0.501,1.169c0,0.455-0.167,0.84-0.501,1.154c-0.334,0.315-0.748,0.472-1.242,0.472 c-0.482,0-0.891-0.157-1.227-0.472c-0.336-0.315-0.504-0.7-0.504-1.154c0-0.463,0.168-0.852,0.504-1.169 C110.99,144.738,111.399,144.58,111.881,144.58z M112.837,150.498c0-0.276-0.095-0.508-0.286-0.697 c-0.191-0.188-0.426-0.283-0.706-0.283c-0.268,0-0.498,0.094-0.691,0.283c-0.192,0.189-0.289,0.421-0.289,0.697 c0,0.272,0.096,0.501,0.289,0.688c0.192,0.187,0.423,0.28,0.691,0.28c0.28,0,0.515-0.093,0.706-0.28 C112.742,150.999,112.837,150.77,112.837,150.498z M112.872,146.212c0-0.28-0.095-0.513-0.286-0.7 c-0.191-0.187-0.426-0.28-0.705-0.28c-0.268,0-0.498,0.093-0.688,0.28c-0.19,0.187-0.286,0.42-0.286,0.7 c0,0.272,0.095,0.501,0.286,0.688c0.19,0.187,0.42,0.28,0.688,0.28c0.28,0,0.515-0.093,0.705-0.28 C112.777,146.714,112.872,146.484,112.872,146.212z" />

        <path
            d="M117.017,148.818v3.329h-2.379v-1.003h1.376v-5.574h-1.347 v-0.991h2.35v3.248h1.376v-3.248h2.361v0.991h-1.358v5.574h1.382v1.003h-2.385v-3.329H117.017z" />

        <path
            d="M129.401,148.41c-0.02,1.034-0.391,1.913-1.114,2.638 c-0.723,0.725-1.603,1.087-2.641,1.087c-1.018,0-1.889-0.364-2.612-1.093c-0.723-0.729-1.088-1.606-1.096-2.632 c-0.012-1.065,0.345-1.97,1.07-2.714c0.725-0.744,1.604-1.117,2.638-1.117c1.046,0,1.935,0.374,2.667,1.122 C129.046,146.45,129.409,147.353,129.401,148.41z M128.369,148.387c0-0.781-0.266-1.451-0.799-2.009 c-0.533-0.558-1.16-0.827-1.883-0.807c-0.766,0.008-1.409,0.288-1.93,0.839c-0.521,0.552-0.781,1.219-0.781,2 c0.023,0.731,0.291,1.365,0.805,1.904c0.513,0.538,1.141,0.811,1.883,0.819c0.715-0.008,1.339-0.283,1.872-0.825 C128.068,149.766,128.346,149.126,128.369,148.387z" />

        <path
            d="M132.345,148.649c0.494,0,0.908,0.169,1.242,0.507 c0.334,0.338,0.501,0.754,0.501,1.248c0,0.494-0.167,0.91-0.501,1.248c-0.334,0.338-0.748,0.507-1.242,0.507 c-0.486,0-0.896-0.169-1.23-0.507c-0.334-0.338-0.501-0.754-0.501-1.248c0-0.494,0.167-0.91,0.501-1.248 C131.449,148.818,131.859,148.649,132.345,148.649z M133.29,150.393c0-0.28-0.091-0.511-0.274-0.694 c-0.183-0.183-0.406-0.274-0.67-0.274c-0.253,0-0.47,0.091-0.653,0.274c-0.183,0.183-0.274,0.414-0.274,0.694 c0,0.272,0.091,0.501,0.274,0.688c0.183,0.187,0.4,0.28,0.653,0.28c0.264,0,0.488-0.093,0.67-0.28 C133.198,150.894,133.29,150.665,133.29,150.393z" />

        <path
            d="M140.939,144.591l-2.443,3.761l2.46,3.796h-1.09 l-1.924-2.962l-1.918,2.962h-1.079l2.46-3.784l-2.46-3.772H140.939z M136.56,145.379l1.393,2.146l1.388-2.146H136.56z" />

        <path
            d="M146.705,148.649c0.494,0,0.908,0.169,1.242,0.507 c0.334,0.338,0.501,0.754,0.501,1.248c0,0.494-0.167,0.91-0.501,1.248c-0.334,0.338-0.748,0.507-1.242,0.507 c-0.486,0-0.896-0.169-1.23-0.507c-0.334-0.338-0.501-0.754-0.501-1.248c0-0.494,0.167-0.91,0.501-1.248 C145.809,148.818,146.219,148.649,146.705,148.649z M147.649,150.393c0-0.28-0.091-0.511-0.274-0.694 c-0.183-0.183-0.406-0.274-0.67-0.274c-0.253,0-0.47,0.091-0.653,0.274c-0.183,0.183-0.274,0.414-0.274,0.694 c0,0.272,0.091,0.501,0.274,0.688c0.183,0.187,0.4,0.28,0.653,0.28c0.264,0,0.488-0.093,0.67-0.28 C147.558,150.894,147.649,150.665,147.649,150.393z" />

        <path d="M150.308,152.148h-0.991v-7.568h0.991V152.148z" />

        <path
            d="M153.223,148.649c0.494,0,0.908,0.169,1.242,0.507 c0.334,0.338,0.501,0.754,0.501,1.248c0,0.494-0.167,0.91-0.501,1.248c-0.334,0.338-0.748,0.507-1.242,0.507 c-0.486,0-0.896-0.169-1.23-0.507c-0.334-0.338-0.501-0.754-0.501-1.248c0-0.494,0.167-0.91,0.501-1.248 C152.327,148.818,152.737,148.649,153.223,148.649z M154.168,150.393c0-0.28-0.091-0.511-0.274-0.694 c-0.183-0.183-0.406-0.274-0.67-0.274c-0.253,0-0.47,0.091-0.653,0.274c-0.183,0.183-0.274,0.414-0.274,0.694 c0,0.272,0.091,0.501,0.274,0.688c0.183,0.187,0.4,0.28,0.653,0.28c0.264,0,0.488-0.093,0.67-0.28 C154.076,150.894,154.168,150.665,154.168,150.393z" />

        <path d="M161.461,152.148h-5.615v-7.568h5.615v1.003h-4.606v5.562 h4.606V152.148z" />

        <path
            d="M164.54,148.865c0.494,0,0.908,0.159,1.242,0.478 c0.334,0.319,0.501,0.707,0.501,1.166c0,0.455-0.167,0.839-0.501,1.154c-0.334,0.315-0.748,0.472-1.242,0.472 c-0.486,0-0.896-0.157-1.23-0.472c-0.334-0.315-0.501-0.7-0.501-1.154c0-0.459,0.167-0.847,0.501-1.166 C163.644,149.025,164.054,148.865,164.54,148.865z M164.575,144.58c0.494,0,0.907,0.158,1.242,0.475 c0.334,0.317,0.501,0.706,0.501,1.169c0,0.455-0.167,0.84-0.501,1.154c-0.334,0.315-0.748,0.472-1.242,0.472 c-0.482,0-0.891-0.157-1.227-0.472c-0.336-0.315-0.504-0.7-0.504-1.154c0-0.463,0.168-0.852,0.504-1.169 C163.684,144.738,164.093,144.58,164.575,144.58z M165.531,150.498c0-0.276-0.095-0.508-0.286-0.697 c-0.191-0.188-0.426-0.283-0.706-0.283c-0.268,0-0.498,0.094-0.691,0.283c-0.192,0.189-0.289,0.421-0.289,0.697 c0,0.272,0.096,0.501,0.289,0.688c0.192,0.187,0.423,0.28,0.691,0.28c0.28,0,0.515-0.093,0.706-0.28 C165.436,150.999,165.531,150.77,165.531,150.498z M165.566,146.212c0-0.28-0.095-0.513-0.286-0.7 c-0.191-0.187-0.426-0.28-0.705-0.28c-0.268,0-0.498,0.093-0.688,0.28c-0.19,0.187-0.286,0.42-0.286,0.7 c0,0.272,0.095,0.501,0.286,0.688c0.19,0.187,0.42,0.28,0.688,0.28c0.28,0,0.515-0.093,0.705-0.28 C165.471,146.714,165.566,146.484,165.566,146.212z" />

        <path d="M168.312,152.148h-0.991v-7.568h0.991V152.148z" />
    </g>
    <g transform="translate(0, 0)" stroke="none" stroke-width="0.25" stroke-miterlimit="10">

        <path
            d="M13.322,162.032H11.28v-0.199 c0.213-0.006,0.361-0.05,0.444-0.133c0.083-0.083,0.124-0.231,0.124-0.444c0-0.039-0.003-0.086-0.008-0.141l-0.324-3.299 c-0.473,0.841-0.811,1.498-1.013,1.971l-1.042,2.44H9.276l-1.942-4.83l-0.141,1.49c-0.064,0.672-0.095,1.205-0.095,1.598 c0,0.874,0.219,1.324,0.656,1.349v0.199H5.877v-0.199c0.235-0.055,0.426-0.257,0.573-0.606c0.066-0.158,0.147-0.443,0.241-0.855 c0.119-0.512,0.206-1.068,0.261-1.668l0.104-1.104c0.003-0.03,0.004-0.087,0.004-0.17c0-0.196-0.044-0.331-0.133-0.403 c-0.075-0.064-0.213-0.098-0.415-0.104v-0.199h1.357l1.78,4.39l1.021-2.411c0.382-0.905,0.635-1.564,0.759-1.979h1.482v0.199 c-0.221,0.006-0.379,0.039-0.473,0.1c-0.116,0.077-0.174,0.221-0.174,0.432c0,0.036,0.001,0.068,0.004,0.095l0.315,3.312 c0.033,0.36,0.08,0.592,0.141,0.697c0.097,0.174,0.296,0.265,0.598,0.274V162.032z" />

        <path
            d="M15.521,162.032H13.62v-0.199 c0.232-0.006,0.396-0.057,0.492-0.154c0.095-0.097,0.143-0.262,0.143-0.494v-2.27c0-0.174-0.1-0.261-0.299-0.261 c-0.072,0-0.151,0.018-0.237,0.054c-0.044,0.019-0.077,0.032-0.1,0.037v-0.212l1.062-0.419h0.203v3.071 c0,0.232,0.048,0.397,0.143,0.494c0.095,0.097,0.259,0.148,0.492,0.154V162.032z M14.969,156.786c0,0.111-0.039,0.204-0.116,0.28 c-0.077,0.076-0.172,0.114-0.282,0.114c-0.111,0-0.204-0.038-0.28-0.114c-0.076-0.076-0.114-0.169-0.114-0.28 c0-0.108,0.037-0.201,0.112-0.28c0.075-0.079,0.166-0.118,0.274-0.118c0.113,0,0.21,0.038,0.288,0.114 C14.93,156.578,14.969,156.673,14.969,156.786z" />

        <path
            d="M20.198,162.032h-1.444v-0.199 c0.116-0.006,0.174-0.073,0.174-0.203v-2.565c0-0.318-0.134-0.477-0.402-0.477c-0.434,0-0.794,0.313-1.079,0.938 c-0.23,0.506-0.344,1.007-0.344,1.502c0,0.293,0.04,0.494,0.12,0.602c0.097,0.13,0.284,0.198,0.56,0.203v0.199h-1.888v-0.199 c0.232-0.006,0.396-0.057,0.49-0.154c0.094-0.097,0.141-0.262,0.141-0.494v-2.12c0-0.274-0.091-0.411-0.274-0.411 c-0.066,0-0.185,0.035-0.357,0.104v-0.207l1.079-0.44h0.174v1.365c0.296-0.396,0.541-0.685,0.735-0.867 c0.351-0.332,0.678-0.498,0.979-0.498c0.468,0,0.701,0.3,0.701,0.9v2.175c0,0.232,0.048,0.397,0.143,0.494 c0.095,0.097,0.259,0.148,0.492,0.154V162.032z" />

        <path
            d="M22.518,162.032h-1.901v-0.199 c0.232-0.006,0.396-0.057,0.492-0.154c0.095-0.097,0.143-0.262,0.143-0.494v-2.27c0-0.174-0.1-0.261-0.299-0.261 c-0.072,0-0.151,0.018-0.237,0.054c-0.044,0.019-0.077,0.032-0.1,0.037v-0.212l1.062-0.419h0.203v3.071 c0,0.232,0.048,0.397,0.143,0.494c0.095,0.097,0.259,0.148,0.492,0.154V162.032z M21.966,156.786c0,0.111-0.039,0.204-0.116,0.28 s-0.172,0.114-0.282,0.114c-0.111,0-0.204-0.038-0.28-0.114c-0.076-0.076-0.114-0.169-0.114-0.28c0-0.108,0.037-0.201,0.112-0.28 c0.075-0.079,0.166-0.118,0.274-0.118c0.113,0,0.21,0.038,0.288,0.114C21.926,156.578,21.966,156.673,21.966,156.786z" />

        <path
            d="M25.555,160.87c0,0.365-0.165,0.675-0.494,0.93 c-0.304,0.235-0.645,0.353-1.021,0.353c-0.296,0-0.638-0.083-1.025-0.249v-1.15h0.282c0.019,0.313,0.106,0.573,0.261,0.78 c0.177,0.238,0.414,0.357,0.71,0.357c0.208,0,0.38-0.063,0.519-0.189c0.138-0.126,0.207-0.293,0.207-0.5 c0-0.205-0.084-0.389-0.253-0.552c-0.077-0.075-0.25-0.196-0.519-0.365l-0.531-0.336c-0.365-0.257-0.548-0.524-0.548-0.801 c0-0.324,0.151-0.584,0.452-0.78c0.26-0.169,0.562-0.253,0.905-0.253c0.252,0,0.523,0.055,0.813,0.166v1.087h-0.299 c-0.003-0.266-0.075-0.497-0.216-0.693c-0.158-0.216-0.365-0.324-0.622-0.324c-0.144,0-0.262,0.046-0.355,0.139 c-0.093,0.093-0.139,0.211-0.139,0.355c0,0.174,0.086,0.339,0.257,0.494c0.077,0.072,0.237,0.183,0.477,0.332 c0.432,0.271,0.676,0.43,0.735,0.477C25.421,160.369,25.555,160.61,25.555,160.87z" />

        <path
            d="M28.178,158.737h-1.017v2.664 c0,0.174,0.069,0.261,0.207,0.261c0.136,0,0.337-0.111,0.606-0.332c0.03-0.025,0.054-0.043,0.071-0.054v0.241 c-0.47,0.423-0.845,0.635-1.125,0.635c-0.26,0-0.39-0.201-0.39-0.602v-2.814h-0.635v-0.187c0.241,0,0.413-0.049,0.517-0.147 c0.104-0.098,0.156-0.268,0.156-0.508v-0.627l0.851-0.345v0.216c-0.174,0.042-0.261,0.238-0.261,0.589 c0,0.379,0.091,0.622,0.274,0.73c0.102,0.061,0.237,0.091,0.402,0.091h0.344V158.737z" />

        <path
            d="M31.805,160.99c-0.617,0.775-1.219,1.162-1.805,1.162 c-0.445,0-0.823-0.195-1.133-0.585c-0.288-0.362-0.432-0.772-0.432-1.228c0-0.548,0.174-1.046,0.523-1.494 c0.376-0.481,0.831-0.722,1.365-0.722c0.412,0,0.743,0.149,0.992,0.448c0.23,0.277,0.351,0.627,0.365,1.05h-2.677 c-0.006,0.108-0.008,0.187-0.008,0.237c0,0.443,0.112,0.829,0.336,1.158c0.255,0.373,0.593,0.56,1.017,0.56 c0.476,0,0.961-0.286,1.457-0.859V160.99z M31,159.413c-0.03-0.291-0.119-0.527-0.266-0.71c-0.169-0.213-0.39-0.32-0.664-0.32 c-0.271,0-0.504,0.106-0.697,0.32c-0.18,0.194-0.291,0.43-0.332,0.71H31z M30.601,157.529l-0.149,0.087l-0.577-0.647 c-0.183-0.205-0.274-0.339-0.274-0.402c0-0.172,0.083-0.257,0.249-0.257c0.1,0,0.192,0.087,0.278,0.262L30.601,157.529z" />

        <path
            d="M35.237,159.463h-0.295 c-0.003-0.501-0.148-0.751-0.436-0.751c-0.354,0-0.638,0.307-0.851,0.921c-0.163,0.473-0.245,0.927-0.245,1.361 c0,0.346,0.071,0.575,0.212,0.689c0.124,0.1,0.364,0.149,0.718,0.149v0.199h-2.158v-0.199c0.232-0.006,0.397-0.057,0.494-0.154 c0.097-0.097,0.145-0.262,0.145-0.494v-2.154c0-0.243-0.09-0.365-0.27-0.365c-0.075,0-0.198,0.03-0.369,0.091v-0.199l1.091-0.444 h0.183v1.349c0.523-0.893,1.007-1.34,1.452-1.34c0.091,0,0.201,0.021,0.328,0.062V159.463z" />

        <path
            d="M38.889,160.99c-0.617,0.775-1.219,1.162-1.805,1.162 c-0.445,0-0.823-0.195-1.133-0.585c-0.288-0.362-0.432-0.772-0.432-1.228c0-0.548,0.174-1.046,0.523-1.494 c0.376-0.481,0.831-0.722,1.365-0.722c0.412,0,0.743,0.149,0.992,0.448c0.23,0.277,0.351,0.627,0.365,1.05h-2.677 c-0.006,0.108-0.008,0.187-0.008,0.237c0,0.443,0.112,0.829,0.336,1.158c0.255,0.373,0.593,0.56,1.017,0.56 c0.476,0,0.961-0.286,1.457-0.859V160.99z M38.083,159.413c-0.03-0.291-0.119-0.527-0.266-0.71c-0.169-0.213-0.39-0.32-0.664-0.32 c-0.271,0-0.504,0.106-0.697,0.32c-0.18,0.194-0.291,0.43-0.332,0.71H38.083z" />

        <path
            d="M45.478,161.733l-1.058,0.415h-0.195v-1.34 c-0.343,0.437-0.585,0.723-0.726,0.859c-0.338,0.324-0.664,0.486-0.979,0.486c-0.382,0-0.686-0.181-0.913-0.544 c-0.196-0.313-0.295-0.671-0.295-1.075c0-0.561,0.201-1.097,0.602-1.606c0.429-0.542,0.917-0.813,1.465-0.813 c0.238,0,0.52,0.073,0.847,0.22v-1.116c0-0.235-0.09-0.353-0.27-0.353c-0.094,0-0.213,0.029-0.357,0.087v-0.228l1.436-0.548v0.17 c-0.119,0.047-0.178,0.141-0.178,0.282v4.639c0,0.23,0.098,0.344,0.295,0.344c0.088,0,0.198-0.03,0.328-0.091V161.733z M44.275,159.388c0-0.188-0.017-0.355-0.05-0.502c-0.385-0.318-0.755-0.477-1.112-0.477c-0.385,0-0.686,0.213-0.905,0.639 c-0.177,0.346-0.266,0.73-0.266,1.154c0,0.332,0.073,0.635,0.22,0.909c0.177,0.329,0.419,0.494,0.726,0.494 c0.407,0,0.751-0.278,1.033-0.834C44.157,160.305,44.275,159.845,44.275,159.388z" />

        <path
            d="M49.109,160.99c-0.617,0.775-1.219,1.162-1.805,1.162 c-0.445,0-0.823-0.195-1.133-0.585c-0.288-0.362-0.432-0.772-0.432-1.228c0-0.548,0.174-1.046,0.523-1.494 c0.376-0.481,0.831-0.722,1.365-0.722c0.412,0,0.743,0.149,0.992,0.448c0.23,0.277,0.351,0.627,0.365,1.05h-2.677 c-0.006,0.108-0.008,0.187-0.008,0.237c0,0.443,0.112,0.829,0.336,1.158c0.255,0.373,0.593,0.56,1.017,0.56 c0.476,0,0.961-0.286,1.457-0.859V160.99z M48.304,159.413c-0.03-0.291-0.119-0.527-0.266-0.71c-0.169-0.213-0.39-0.32-0.664-0.32 c-0.271,0-0.504,0.106-0.697,0.32c-0.18,0.194-0.291,0.43-0.332,0.71H48.304z" />

        <path
            d="M53.5,162.032h-1.905v-0.199 c0.232-0.006,0.397-0.057,0.494-0.154c0.097-0.097,0.145-0.262,0.145-0.494v-3.946c0-0.254-0.105-0.382-0.315-0.382 c-0.089,0-0.196,0.022-0.324,0.066v-0.199l1.448-0.569v0.17c-0.119,0.058-0.178,0.159-0.178,0.303v4.556 c0,0.232,0.048,0.397,0.143,0.494c0.095,0.097,0.259,0.148,0.492,0.154V162.032z" />

        <path
            d="M57.587,161.534c-0.421,0.412-0.764,0.618-1.029,0.618 c-0.238,0-0.357-0.133-0.357-0.398v-0.614c-0.658,0.675-1.177,1.013-1.556,1.013c-0.219,0-0.4-0.086-0.544-0.257 c-0.138-0.163-0.207-0.355-0.207-0.577c0-0.6,0.769-1.248,2.307-1.942v-0.498c0-0.351-0.172-0.527-0.515-0.527 c-0.315,0-0.58,0.159-0.793,0.477c-0.177,0.263-0.284,0.567-0.32,0.913h-0.278v-0.996c0.636-0.421,1.235-0.631,1.797-0.631 c0.268,0,0.459,0.059,0.571,0.178c0.112,0.119,0.168,0.314,0.168,0.585v2.594c0,0.124,0.057,0.187,0.17,0.187 c0.111,0,0.306-0.127,0.585-0.382V161.534z M56.247,159.712c-0.398,0.083-0.759,0.226-1.083,0.427 c-0.426,0.266-0.639,0.566-0.639,0.901c0,0.172,0.053,0.308,0.16,0.411c0.106,0.102,0.245,0.154,0.417,0.154 c0.401,0,0.704-0.23,0.909-0.689C56.163,160.575,56.242,160.174,56.247,159.712z" />

        <path
            d="M63.289,160.484c0,0.465-0.214,0.865-0.643,1.199 c-0.398,0.313-0.837,0.469-1.315,0.469c-0.363,0-0.769-0.087-1.22-0.262v-1.494h0.295c0,0.385,0.106,0.719,0.32,1.004 c0.238,0.315,0.542,0.473,0.913,0.473c0.293,0,0.533-0.086,0.718-0.257c0.185-0.172,0.278-0.404,0.278-0.697 c0-0.301-0.14-0.584-0.419-0.847c-0.111-0.102-0.378-0.295-0.801-0.577c-0.354-0.235-0.617-0.426-0.789-0.573 c-0.257-0.221-0.386-0.497-0.386-0.826c0-0.434,0.202-0.799,0.606-1.096c0.362-0.266,0.77-0.398,1.224-0.398 c0.246,0,0.574,0.071,0.983,0.212v1.303H62.75c-0.019-0.329-0.116-0.61-0.291-0.842c-0.199-0.26-0.456-0.39-0.772-0.39 c-0.232,0-0.426,0.071-0.581,0.212c-0.155,0.141-0.232,0.326-0.232,0.556c0,0.282,0.16,0.567,0.481,0.855 c0.124,0.114,0.401,0.313,0.83,0.598c0.379,0.254,0.628,0.441,0.747,0.56C63.17,159.907,63.289,160.18,63.289,160.484z" />

        <path
            d="M67.451,161.534c-0.421,0.412-0.764,0.618-1.029,0.618 c-0.238,0-0.357-0.133-0.357-0.398v-0.614c-0.658,0.675-1.177,1.013-1.556,1.013c-0.219,0-0.4-0.086-0.544-0.257 c-0.138-0.163-0.207-0.355-0.207-0.577c0-0.6,0.769-1.248,2.307-1.942v-0.498c0-0.351-0.172-0.527-0.515-0.527 c-0.315,0-0.58,0.159-0.793,0.477c-0.177,0.263-0.284,0.567-0.32,0.913h-0.278v-0.996c0.636-0.421,1.235-0.631,1.797-0.631 c0.268,0,0.459,0.059,0.571,0.178c0.112,0.119,0.168,0.314,0.168,0.585v2.594c0,0.124,0.057,0.187,0.17,0.187 c0.111,0,0.306-0.127,0.585-0.382V161.534z M66.111,159.712c-0.398,0.083-0.759,0.226-1.083,0.427 c-0.426,0.266-0.639,0.566-0.639,0.901c0,0.172,0.053,0.308,0.16,0.411c0.106,0.102,0.245,0.154,0.417,0.154 c0.401,0,0.704-0.23,0.909-0.689C66.027,160.575,66.106,160.174,66.111,159.712z" />

        <path
            d="M72.02,162.032h-1.444v-0.199 c0.116-0.006,0.174-0.073,0.174-0.203v-2.565c0-0.318-0.134-0.477-0.402-0.477c-0.434,0-0.794,0.313-1.079,0.938 c-0.23,0.506-0.344,1.007-0.344,1.502c0,0.293,0.04,0.494,0.12,0.602c0.097,0.13,0.284,0.198,0.56,0.203v0.199h-1.888v-0.199 c0.232-0.006,0.396-0.057,0.49-0.154c0.094-0.097,0.141-0.262,0.141-0.494v-2.12c0-0.274-0.091-0.411-0.274-0.411 c-0.066,0-0.185,0.035-0.357,0.104v-0.207l1.079-0.44h0.174v1.365c0.296-0.396,0.541-0.685,0.735-0.867 c0.351-0.332,0.678-0.498,0.979-0.498c0.468,0,0.701,0.3,0.701,0.9v2.175c0,0.232,0.048,0.397,0.143,0.494 c0.095,0.097,0.259,0.148,0.492,0.154V162.032z" />

        <path
            d="M74.598,158.737h-1.017v2.664 c0,0.174,0.069,0.261,0.207,0.261c0.136,0,0.337-0.111,0.606-0.332c0.03-0.025,0.054-0.043,0.071-0.054v0.241 c-0.47,0.423-0.845,0.635-1.125,0.635c-0.26,0-0.39-0.201-0.39-0.602v-2.814h-0.635v-0.187c0.241,0,0.413-0.049,0.517-0.147 c0.104-0.098,0.156-0.268,0.156-0.508v-0.627l0.851-0.345v0.216c-0.174,0.042-0.261,0.238-0.261,0.589 c0,0.379,0.091,0.622,0.274,0.73c0.102,0.061,0.237,0.091,0.403,0.091h0.344V158.737z" />

        <path
            d="M78.224,160.99c-0.617,0.775-1.219,1.162-1.805,1.162 c-0.445,0-0.823-0.195-1.133-0.585c-0.288-0.362-0.432-0.772-0.432-1.228c0-0.548,0.174-1.046,0.523-1.494 c0.376-0.481,0.831-0.722,1.365-0.722c0.412,0,0.743,0.149,0.992,0.448c0.23,0.277,0.351,0.627,0.365,1.05h-2.677 c-0.006,0.108-0.008,0.187-0.008,0.237c0,0.443,0.112,0.829,0.336,1.158c0.255,0.373,0.593,0.56,1.017,0.56 c0.476,0,0.961-0.286,1.457-0.859V160.99z M77.419,159.413c-0.03-0.291-0.119-0.527-0.266-0.71c-0.169-0.213-0.39-0.32-0.664-0.32 c-0.271,0-0.504,0.106-0.697,0.32c-0.18,0.194-0.291,0.43-0.332,0.71H77.419z M77.27,156.554c0,0.069-0.048,0.158-0.145,0.266 l-0.701,0.78l-0.174-0.12l0.531-0.988c0.066-0.122,0.145-0.183,0.236-0.183c0.066,0,0.125,0.024,0.176,0.073 C77.244,156.43,77.27,156.488,77.27,156.554z" />

        <path
            d="M84.018,160.99c-0.617,0.775-1.219,1.162-1.805,1.162 c-0.445,0-0.823-0.195-1.133-0.585c-0.288-0.362-0.432-0.772-0.432-1.228c0-0.548,0.174-1.046,0.523-1.494 c0.376-0.481,0.831-0.722,1.365-0.722c0.412,0,0.743,0.149,0.992,0.448c0.23,0.277,0.351,0.627,0.365,1.05h-2.677 c-0.006,0.108-0.008,0.187-0.008,0.237c0,0.443,0.112,0.829,0.336,1.158c0.255,0.373,0.593,0.56,1.017,0.56 c0.476,0,0.961-0.286,1.457-0.859V160.99z M83.212,159.413c-0.03-0.291-0.119-0.527-0.266-0.71c-0.169-0.213-0.39-0.32-0.664-0.32 c-0.271,0-0.504,0.106-0.697,0.32c-0.18,0.194-0.291,0.43-0.332,0.71H83.212z" />

        <path
            d="M86.586,158.737h-1.017v2.664 c0,0.174,0.069,0.261,0.207,0.261c0.136,0,0.337-0.111,0.606-0.332c0.03-0.025,0.054-0.043,0.071-0.054v0.241 c-0.47,0.423-0.845,0.635-1.125,0.635c-0.26,0-0.39-0.201-0.39-0.602v-2.814h-0.635v-0.187c0.241,0,0.413-0.049,0.517-0.147 c0.104-0.098,0.156-0.268,0.156-0.508v-0.627l0.851-0.345v0.216c-0.174,0.042-0.261,0.238-0.261,0.589 c0,0.379,0.091,0.622,0.274,0.73c0.102,0.061,0.237,0.091,0.402,0.091h0.344V158.737z" />

        <path
            d="M93.085,161.733l-1.058,0.415h-0.195v-1.34 c-0.343,0.437-0.585,0.723-0.726,0.859c-0.338,0.324-0.664,0.486-0.979,0.486c-0.382,0-0.686-0.181-0.913-0.544 c-0.197-0.313-0.295-0.671-0.295-1.075c0-0.561,0.201-1.097,0.602-1.606c0.429-0.542,0.917-0.813,1.465-0.813 c0.238,0,0.52,0.073,0.847,0.22v-1.116c0-0.235-0.09-0.353-0.27-0.353c-0.094,0-0.213,0.029-0.357,0.087v-0.228l1.436-0.548v0.17 c-0.119,0.047-0.178,0.141-0.178,0.282v4.639c0,0.23,0.098,0.344,0.295,0.344c0.088,0,0.198-0.03,0.328-0.091V161.733z M91.881,159.388c0-0.188-0.017-0.355-0.05-0.502c-0.385-0.318-0.755-0.477-1.112-0.477c-0.385,0-0.686,0.213-0.905,0.639 c-0.177,0.346-0.266,0.73-0.266,1.154c0,0.332,0.073,0.635,0.22,0.909c0.177,0.329,0.419,0.494,0.726,0.494 c0.407,0,0.751-0.278,1.033-0.834C91.764,160.305,91.881,159.845,91.881,159.388z" />

        <path
            d="M96.716,160.99c-0.617,0.775-1.219,1.162-1.805,1.162 c-0.445,0-0.823-0.195-1.133-0.585c-0.288-0.362-0.432-0.772-0.432-1.228c0-0.548,0.174-1.046,0.523-1.494 c0.376-0.481,0.831-0.722,1.365-0.722c0.412,0,0.743,0.149,0.992,0.448c0.23,0.277,0.351,0.627,0.365,1.05h-2.677 c-0.006,0.108-0.008,0.187-0.008,0.237c0,0.443,0.112,0.829,0.336,1.158c0.255,0.373,0.593,0.56,1.017,0.56 c0.476,0,0.961-0.286,1.457-0.859V160.99z M95.911,159.413c-0.03-0.291-0.119-0.527-0.266-0.71c-0.169-0.213-0.39-0.32-0.664-0.32 c-0.271,0-0.504,0.106-0.697,0.32c-0.18,0.194-0.291,0.43-0.332,0.71H95.911z" />

        <path
            d="M101.106,162.032h-1.905v-0.199 c0.232-0.006,0.397-0.057,0.494-0.154c0.097-0.097,0.145-0.262,0.145-0.494v-3.946c0-0.254-0.105-0.382-0.315-0.382 c-0.089,0-0.196,0.022-0.324,0.066v-0.199l1.448-0.569v0.17c-0.119,0.058-0.178,0.159-0.178,0.303v4.556 c0,0.232,0.048,0.397,0.143,0.494c0.095,0.097,0.259,0.148,0.492,0.154V162.032z" />

        <path
            d="M105.194,161.534c-0.421,0.412-0.764,0.618-1.029,0.618 c-0.238,0-0.357-0.133-0.357-0.398v-0.614c-0.658,0.675-1.177,1.013-1.556,1.013c-0.219,0-0.4-0.086-0.544-0.257 c-0.138-0.163-0.207-0.355-0.207-0.577c0-0.6,0.769-1.248,2.307-1.942v-0.498c0-0.351-0.172-0.527-0.515-0.527 c-0.315,0-0.58,0.159-0.793,0.477c-0.177,0.263-0.284,0.567-0.32,0.913h-0.278v-0.996c0.636-0.421,1.235-0.631,1.797-0.631 c0.268,0,0.459,0.059,0.571,0.178c0.112,0.119,0.168,0.314,0.168,0.585v2.594c0,0.124,0.057,0.187,0.17,0.187 c0.111,0,0.306-0.127,0.585-0.382V161.534z M103.853,159.712c-0.398,0.083-0.759,0.226-1.083,0.427 c-0.426,0.266-0.639,0.566-0.639,0.901c0,0.172,0.053,0.308,0.16,0.411c0.106,0.102,0.245,0.154,0.417,0.154 c0.401,0,0.704-0.23,0.909-0.689C103.769,160.575,103.848,160.174,103.853,159.712z" />

        <path
            d="M111.514,157.674c0,0.456-0.205,0.885-0.616,1.284 c-0.411,0.4-0.846,0.6-1.305,0.6c-0.188,0-0.398-0.051-0.631-0.154v1.768c0,0.426,0.21,0.646,0.631,0.66v0.199h-2.029v-0.199 c0.246-0.003,0.413-0.051,0.5-0.145c0.087-0.094,0.131-0.265,0.131-0.514v-3.594c0-0.246-0.044-0.416-0.131-0.508 c-0.087-0.093-0.254-0.142-0.5-0.147v-0.199h2.627C111.073,156.724,111.514,157.041,111.514,157.674z M110.692,158.201 c0-0.349-0.075-0.638-0.224-0.867c-0.174-0.271-0.426-0.407-0.755-0.407c-0.257,0-0.508,0.088-0.751,0.265v1.656 c0.354,0.266,0.671,0.398,0.95,0.398C110.432,159.247,110.692,158.898,110.692,158.201z" />

        <path
            d="M114.655,159.463h-0.295 c-0.003-0.501-0.148-0.751-0.436-0.751c-0.354,0-0.638,0.307-0.851,0.921c-0.163,0.473-0.245,0.927-0.245,1.361 c0,0.346,0.071,0.575,0.212,0.689c0.124,0.1,0.364,0.149,0.718,0.149v0.199h-2.158v-0.199c0.232-0.006,0.397-0.057,0.494-0.154 c0.097-0.097,0.145-0.262,0.145-0.494v-2.154c0-0.243-0.09-0.365-0.27-0.365c-0.075,0-0.198,0.03-0.369,0.091v-0.199l1.091-0.444 h0.183v1.349c0.523-0.893,1.007-1.34,1.452-1.34c0.091,0,0.201,0.021,0.328,0.062V159.463z" />

        <path
            d="M118.731,159.924c0,0.595-0.199,1.112-0.598,1.552 c-0.412,0.451-0.913,0.676-1.502,0.676c-0.531,0-0.95-0.169-1.257-0.506c-0.296-0.326-0.444-0.758-0.444-1.295 c0-0.589,0.196-1.104,0.589-1.544c0.409-0.456,0.905-0.685,1.486-0.685c0.537,0,0.959,0.165,1.266,0.496 C118.577,158.949,118.731,159.384,118.731,159.924z M118.166,160.384c0-0.335-0.073-0.656-0.22-0.963 c-0.155-0.326-0.364-0.578-0.627-0.755c-0.219-0.147-0.441-0.22-0.668-0.22c-0.387,0-0.683,0.144-0.888,0.432 c-0.183,0.252-0.274,0.578-0.274,0.979c0,0.465,0.142,0.892,0.427,1.282c0.313,0.426,0.693,0.639,1.141,0.639 c0.351,0,0.631-0.149,0.838-0.448C118.076,161.068,118.166,160.752,118.166,160.384z" />

        <path
            d="M121.32,158.737h-1.017v2.664 c0,0.174,0.069,0.261,0.207,0.261c0.136,0,0.337-0.111,0.606-0.332c0.03-0.025,0.054-0.043,0.071-0.054v0.241 c-0.47,0.423-0.845,0.635-1.125,0.635c-0.26,0-0.39-0.201-0.39-0.602v-2.814h-0.635v-0.187c0.241,0,0.413-0.049,0.517-0.147 c0.104-0.098,0.156-0.268,0.156-0.508v-0.627l0.851-0.345v0.216c-0.174,0.042-0.261,0.238-0.261,0.589 c0,0.379,0.091,0.622,0.274,0.73c0.102,0.061,0.237,0.091,0.402,0.091h0.344V158.737z" />

        <path
            d="M124.947,160.99c-0.617,0.775-1.219,1.162-1.805,1.162 c-0.445,0-0.823-0.195-1.133-0.585c-0.288-0.362-0.432-0.772-0.432-1.228c0-0.548,0.174-1.046,0.523-1.494 c0.376-0.481,0.831-0.722,1.365-0.722c0.412,0,0.743,0.149,0.992,0.448c0.23,0.277,0.351,0.627,0.365,1.05h-2.677 c-0.006,0.108-0.008,0.187-0.008,0.237c0,0.443,0.112,0.829,0.336,1.158c0.255,0.373,0.593,0.56,1.017,0.56 c0.476,0,0.961-0.286,1.457-0.859V160.99z M124.142,159.413c-0.03-0.291-0.119-0.527-0.266-0.71 c-0.169-0.213-0.39-0.32-0.664-0.32c-0.271,0-0.504,0.106-0.697,0.32c-0.18,0.194-0.291,0.43-0.332,0.71H124.142z" />

        <path
            d="M128.607,161.015c-0.606,0.758-1.192,1.137-1.76,1.137 c-0.465,0-0.844-0.185-1.137-0.556c-0.274-0.346-0.411-0.757-0.411-1.232c0-0.595,0.194-1.113,0.581-1.556 c0.404-0.465,0.899-0.697,1.486-0.697c0.346,0,0.721,0.091,1.125,0.274v1.083h-0.303c-0.008-0.321-0.108-0.582-0.299-0.784 c-0.196-0.213-0.452-0.32-0.768-0.32c-0.393,0-0.703,0.177-0.93,0.531c-0.196,0.304-0.295,0.664-0.295,1.079 c0,0.426,0.104,0.793,0.311,1.1c0.238,0.351,0.56,0.527,0.967,0.527c0.412,0,0.889-0.292,1.432-0.876V161.015z" />

        <path
            d="M131.321,158.737h-1.017v2.664 c0,0.174,0.069,0.261,0.207,0.261c0.136,0,0.337-0.111,0.606-0.332c0.03-0.025,0.054-0.043,0.071-0.054v0.241 c-0.47,0.423-0.845,0.635-1.125,0.635c-0.26,0-0.39-0.201-0.39-0.602v-2.814h-0.635v-0.187c0.241,0,0.413-0.049,0.517-0.147 c0.104-0.098,0.156-0.268,0.156-0.508v-0.627l0.851-0.345v0.216c-0.174,0.042-0.261,0.238-0.261,0.589 c0,0.379,0.091,0.622,0.274,0.73c0.102,0.061,0.237,0.091,0.402,0.091h0.344V158.737z" />

        <path
            d="M133.541,162.032h-1.901v-0.199 c0.232-0.006,0.396-0.057,0.492-0.154c0.095-0.097,0.143-0.262,0.143-0.494v-2.27c0-0.174-0.1-0.261-0.299-0.261 c-0.072,0-0.151,0.018-0.237,0.054c-0.044,0.019-0.077,0.032-0.1,0.037v-0.212l1.062-0.419h0.203v3.071 c0,0.232,0.048,0.397,0.143,0.494c0.095,0.097,0.259,0.148,0.492,0.154V162.032z M132.989,156.786c0,0.111-0.039,0.204-0.116,0.28 s-0.172,0.114-0.282,0.114s-0.204-0.038-0.28-0.114c-0.076-0.076-0.114-0.169-0.114-0.28c0-0.108,0.037-0.201,0.112-0.28 c0.075-0.079,0.166-0.118,0.274-0.118c0.113,0,0.21,0.038,0.288,0.114C132.95,156.578,132.989,156.673,132.989,156.786z" />

        <path
            d="M137.674,159.924c0,0.595-0.199,1.112-0.598,1.552 c-0.412,0.451-0.913,0.676-1.502,0.676c-0.531,0-0.95-0.169-1.257-0.506c-0.296-0.326-0.444-0.758-0.444-1.295 c0-0.589,0.196-1.104,0.589-1.544c0.409-0.456,0.905-0.685,1.486-0.685c0.537,0,0.959,0.165,1.266,0.496 C137.521,158.949,137.674,159.384,137.674,159.924z M137.11,160.384c0-0.335-0.073-0.656-0.22-0.963 c-0.155-0.326-0.364-0.578-0.627-0.755c-0.219-0.147-0.441-0.22-0.668-0.22c-0.387,0-0.683,0.144-0.888,0.432 c-0.183,0.252-0.274,0.578-0.274,0.979c0,0.465,0.142,0.892,0.427,1.282c0.313,0.426,0.693,0.639,1.141,0.639 c0.351,0,0.631-0.149,0.838-0.448C137.02,161.068,137.11,160.752,137.11,160.384z" />

        <path
            d="M142.38,162.032h-1.444v-0.199 c0.116-0.006,0.174-0.073,0.174-0.203v-2.565c0-0.318-0.134-0.477-0.402-0.477c-0.434,0-0.794,0.313-1.079,0.938 c-0.23,0.506-0.344,1.007-0.344,1.502c0,0.293,0.04,0.494,0.12,0.602c0.097,0.13,0.284,0.198,0.56,0.203v0.199h-1.888v-0.199 c0.232-0.006,0.396-0.057,0.49-0.154c0.094-0.097,0.141-0.262,0.141-0.494v-2.12c0-0.274-0.091-0.411-0.274-0.411 c-0.066,0-0.185,0.035-0.357,0.104v-0.207l1.079-0.44h0.174v1.365c0.296-0.396,0.541-0.685,0.735-0.867 c0.351-0.332,0.678-0.498,0.979-0.498c0.468,0,0.701,0.3,0.701,0.9v2.175c0,0.232,0.048,0.397,0.143,0.494 c0.095,0.097,0.259,0.148,0.492,0.154V162.032z" />

        <path
            d="M148.207,160.484c0,0.465-0.214,0.865-0.643,1.199 c-0.398,0.313-0.837,0.469-1.315,0.469c-0.363,0-0.769-0.087-1.22-0.262v-1.494h0.295c0,0.385,0.106,0.719,0.32,1.004 c0.238,0.315,0.542,0.473,0.913,0.473c0.293,0,0.533-0.086,0.718-0.257c0.185-0.172,0.278-0.404,0.278-0.697 c0-0.301-0.14-0.584-0.419-0.847c-0.111-0.102-0.378-0.295-0.801-0.577c-0.354-0.235-0.617-0.426-0.788-0.573 c-0.257-0.221-0.386-0.497-0.386-0.826c0-0.434,0.202-0.799,0.606-1.096c0.362-0.266,0.77-0.398,1.224-0.398 c0.246,0,0.574,0.071,0.983,0.212v1.303h-0.303c-0.019-0.329-0.116-0.61-0.291-0.842c-0.199-0.26-0.456-0.39-0.772-0.39 c-0.232,0-0.426,0.071-0.581,0.212c-0.155,0.141-0.232,0.326-0.232,0.556c0,0.282,0.16,0.567,0.481,0.855 c0.124,0.114,0.401,0.313,0.83,0.598c0.379,0.254,0.628,0.441,0.747,0.56C148.088,159.907,148.207,160.18,148.207,160.484z" />

        <path
            d="M152.41,159.924c0,0.595-0.199,1.112-0.598,1.552 c-0.412,0.451-0.913,0.676-1.502,0.676c-0.531,0-0.95-0.169-1.257-0.506c-0.296-0.326-0.444-0.758-0.444-1.295 c0-0.589,0.196-1.104,0.589-1.544c0.409-0.456,0.905-0.685,1.486-0.685c0.537,0,0.959,0.165,1.266,0.496 C152.257,158.949,152.41,159.384,152.41,159.924z M151.846,160.384c0-0.335-0.073-0.656-0.22-0.963 c-0.155-0.326-0.364-0.578-0.627-0.755c-0.219-0.147-0.441-0.22-0.668-0.22c-0.387,0-0.683,0.144-0.888,0.432 c-0.183,0.252-0.274,0.578-0.274,0.979c0,0.465,0.142,0.892,0.427,1.282c0.313,0.426,0.693,0.639,1.141,0.639 c0.351,0,0.631-0.149,0.838-0.448C151.756,161.068,151.846,160.752,151.846,160.384z" />

        <path
            d="M156.091,161.015c-0.606,0.758-1.192,1.137-1.76,1.137 c-0.465,0-0.844-0.185-1.137-0.556c-0.274-0.346-0.411-0.757-0.411-1.232c0-0.595,0.194-1.113,0.581-1.556 c0.404-0.465,0.899-0.697,1.486-0.697c0.346,0,0.721,0.091,1.125,0.274v1.083h-0.303c-0.008-0.321-0.108-0.582-0.299-0.784 c-0.196-0.213-0.452-0.32-0.768-0.32c-0.393,0-0.703,0.177-0.93,0.531c-0.197,0.304-0.295,0.664-0.295,1.079 c0,0.426,0.104,0.793,0.311,1.1c0.238,0.351,0.56,0.527,0.967,0.527c0.412,0,0.889-0.292,1.432-0.876V161.015z" />

        <path
            d="M158.548,162.032h-1.901v-0.199 c0.232-0.006,0.396-0.057,0.492-0.154c0.095-0.097,0.143-0.262,0.143-0.494v-2.27c0-0.174-0.1-0.261-0.299-0.261 c-0.072,0-0.151,0.018-0.237,0.054c-0.044,0.019-0.077,0.032-0.1,0.037v-0.212l1.062-0.419h0.203v3.071 c0,0.232,0.048,0.397,0.143,0.494c0.095,0.097,0.259,0.148,0.492,0.154V162.032z M157.996,156.786c0,0.111-0.039,0.204-0.116,0.28 s-0.172,0.114-0.282,0.114s-0.204-0.038-0.28-0.114c-0.076-0.076-0.114-0.169-0.114-0.28c0-0.108,0.037-0.201,0.112-0.28 c0.075-0.079,0.166-0.118,0.274-0.118c0.113,0,0.21,0.038,0.288,0.114C157.956,156.578,157.996,156.673,157.996,156.786z" />

        <path
            d="M162.639,161.534c-0.421,0.412-0.764,0.618-1.029,0.618 c-0.238,0-0.357-0.133-0.357-0.398v-0.614c-0.658,0.675-1.177,1.013-1.556,1.013c-0.219,0-0.4-0.086-0.544-0.257 c-0.138-0.163-0.207-0.355-0.207-0.577c0-0.6,0.769-1.248,2.307-1.942v-0.498c0-0.351-0.172-0.527-0.515-0.527 c-0.315,0-0.58,0.159-0.793,0.477c-0.177,0.263-0.284,0.567-0.32,0.913h-0.278v-0.996c0.636-0.421,1.235-0.631,1.797-0.631 c0.268,0,0.459,0.059,0.571,0.178c0.112,0.119,0.168,0.314,0.168,0.585v2.594c0,0.124,0.057,0.187,0.17,0.187 c0.111,0,0.306-0.127,0.585-0.382V161.534z M161.299,159.712c-0.398,0.083-0.759,0.226-1.083,0.427 c-0.426,0.266-0.639,0.566-0.639,0.901c0,0.172,0.053,0.308,0.16,0.411c0.106,0.102,0.245,0.154,0.417,0.154 c0.401,0,0.704-0.23,0.909-0.689C161.215,160.575,161.294,160.174,161.299,159.712z" />

        <path
            d="M164.839,162.032h-1.905v-0.199 c0.232-0.006,0.397-0.057,0.494-0.154c0.097-0.097,0.145-0.262,0.145-0.494v-3.946c0-0.254-0.105-0.382-0.315-0.382 c-0.089,0-0.196,0.022-0.324,0.066v-0.199l1.448-0.569v0.17c-0.119,0.058-0.178,0.159-0.178,0.303v4.556 c0,0.232,0.048,0.397,0.143,0.494c0.095,0.097,0.259,0.148,0.492,0.154V162.032z" />

        <path
            d="M168.545,160.99c-0.617,0.775-1.219,1.162-1.805,1.162 c-0.445,0-0.823-0.195-1.133-0.585c-0.288-0.362-0.432-0.772-0.432-1.228c0-0.548,0.174-1.046,0.523-1.494 c0.376-0.481,0.831-0.722,1.365-0.722c0.412,0,0.743,0.149,0.992,0.448c0.23,0.277,0.351,0.627,0.365,1.05h-2.677 c-0.006,0.108-0.008,0.187-0.008,0.237c0,0.443,0.112,0.829,0.336,1.158c0.255,0.373,0.593,0.56,1.017,0.56 c0.476,0,0.961-0.286,1.457-0.859V160.99z M167.74,159.413c-0.03-0.291-0.119-0.527-0.266-0.71c-0.169-0.213-0.39-0.32-0.664-0.32 c-0.271,0-0.504,0.106-0.697,0.32c-0.18,0.194-0.291,0.43-0.332,0.71H167.74z" />
    </g>
</svg>